G75*
%MOIN*%
%OFA0B0*%
%FSLAX25Y25*%
%IPPOS*%
%LPD*%
%AMOC8*
5,1,8,0,0,1.08239X$1,22.5*
%
%ADD10C,0.00600*%
%ADD11C,0.00500*%
%ADD12C,0.00400*%
%ADD13C,0.01000*%
%ADD14C,0.00800*%
D10*
X0001300Y0001300D02*
X0438308Y0001300D01*
X0438308Y0253269D01*
X0001300Y0253269D01*
X0001300Y0001300D01*
X0323583Y0072495D02*
X0326083Y0069995D01*
X0331083Y0069995D01*
X0333583Y0072495D01*
X0333583Y0077495D01*
X0331083Y0079995D01*
X0333583Y0082495D01*
X0333583Y0087495D01*
X0331083Y0089995D01*
X0326083Y0089995D01*
X0323583Y0087495D01*
X0323583Y0082495D01*
X0326083Y0079995D01*
X0331083Y0079995D01*
X0326083Y0079995D02*
X0323583Y0077495D01*
X0323583Y0072495D01*
X0326083Y0089995D02*
X0323583Y0092495D01*
X0323583Y0097495D01*
X0326083Y0099995D01*
X0323583Y0102495D01*
X0323583Y0107495D01*
X0326083Y0109995D01*
X0323583Y0112495D01*
X0323583Y0117495D01*
X0326083Y0119995D01*
X0331083Y0119995D01*
X0333583Y0117495D01*
X0333583Y0112495D01*
X0331083Y0109995D01*
X0333583Y0107495D01*
X0333583Y0102495D01*
X0331083Y0099995D01*
X0333583Y0097495D01*
X0333583Y0092495D01*
X0331083Y0089995D01*
X0331083Y0099995D02*
X0326083Y0099995D01*
X0326083Y0109995D02*
X0331083Y0109995D01*
X0331083Y0119995D02*
X0333583Y0122495D01*
X0333583Y0127495D01*
X0331083Y0129995D01*
X0333583Y0132495D01*
X0333583Y0137495D01*
X0331083Y0139995D01*
X0326083Y0139995D01*
X0323583Y0137495D01*
X0323583Y0132495D01*
X0326083Y0129995D01*
X0331083Y0129995D01*
X0326083Y0129995D02*
X0323583Y0127495D01*
X0323583Y0122495D01*
X0326083Y0119995D01*
X0413583Y0122495D02*
X0416083Y0119995D01*
X0421083Y0119995D01*
X0423583Y0117495D01*
X0423583Y0112495D01*
X0421083Y0109995D01*
X0423583Y0107495D01*
X0423583Y0102495D01*
X0421083Y0099995D01*
X0423583Y0097495D01*
X0423583Y0092495D01*
X0421083Y0089995D01*
X0423583Y0087495D01*
X0423583Y0082495D01*
X0421083Y0079995D01*
X0423583Y0077495D01*
X0423583Y0072495D01*
X0421083Y0069995D01*
X0416083Y0069995D01*
X0413583Y0072495D01*
X0413583Y0077495D01*
X0416083Y0079995D01*
X0413583Y0082495D01*
X0413583Y0087495D01*
X0416083Y0089995D01*
X0421083Y0089995D01*
X0416083Y0089995D02*
X0413583Y0092495D01*
X0413583Y0097495D01*
X0416083Y0099995D01*
X0413583Y0102495D01*
X0413583Y0107495D01*
X0416083Y0109995D01*
X0413583Y0112495D01*
X0413583Y0117495D01*
X0416083Y0119995D01*
X0413583Y0122495D02*
X0413583Y0127495D01*
X0416083Y0129995D01*
X0413583Y0132495D01*
X0413583Y0137495D01*
X0416083Y0139995D01*
X0421083Y0139995D01*
X0423583Y0137495D01*
X0423583Y0132495D01*
X0421083Y0129995D01*
X0423583Y0127495D01*
X0423583Y0122495D01*
X0421083Y0119995D01*
X0421083Y0129995D02*
X0416083Y0129995D01*
X0416083Y0109995D02*
X0421083Y0109995D01*
X0421083Y0099995D02*
X0416083Y0099995D01*
X0416083Y0079995D02*
X0421083Y0079995D01*
D11*
X0427324Y0068997D02*
X0319843Y0068997D01*
X0319843Y0165493D01*
X0427324Y0165493D01*
X0427324Y0068997D01*
X0294675Y0097023D02*
X0294675Y0097235D01*
X0294673Y0097274D01*
X0294668Y0097313D01*
X0294659Y0097350D01*
X0294647Y0097387D01*
X0294631Y0097423D01*
X0294612Y0097457D01*
X0294590Y0097489D01*
X0294565Y0097519D01*
X0294537Y0097547D01*
X0294507Y0097572D01*
X0294475Y0097594D01*
X0294441Y0097613D01*
X0294405Y0097629D01*
X0294368Y0097641D01*
X0294331Y0097650D01*
X0294292Y0097655D01*
X0294253Y0097657D01*
X0293620Y0097657D01*
X0293620Y0098501D01*
X0294675Y0098501D01*
X0294675Y0097023D02*
X0294673Y0096984D01*
X0294668Y0096945D01*
X0294659Y0096908D01*
X0294647Y0096871D01*
X0294631Y0096835D01*
X0294612Y0096801D01*
X0294590Y0096769D01*
X0294565Y0096739D01*
X0294537Y0096711D01*
X0294507Y0096686D01*
X0294475Y0096664D01*
X0294441Y0096645D01*
X0294405Y0096629D01*
X0294368Y0096617D01*
X0294331Y0096608D01*
X0294292Y0096603D01*
X0294253Y0096601D01*
X0293620Y0096601D01*
X0292459Y0097023D02*
X0292459Y0098501D01*
X0292459Y0097023D02*
X0292457Y0096984D01*
X0292452Y0096945D01*
X0292443Y0096908D01*
X0292431Y0096871D01*
X0292415Y0096835D01*
X0292396Y0096801D01*
X0292374Y0096769D01*
X0292349Y0096739D01*
X0292321Y0096711D01*
X0292291Y0096686D01*
X0292259Y0096664D01*
X0292225Y0096645D01*
X0292189Y0096629D01*
X0292152Y0096617D01*
X0292115Y0096608D01*
X0292076Y0096603D01*
X0292037Y0096601D01*
X0291826Y0096601D01*
X0295763Y0116286D02*
X0295974Y0116286D01*
X0296013Y0116288D01*
X0296052Y0116293D01*
X0296089Y0116302D01*
X0296126Y0116314D01*
X0296162Y0116330D01*
X0296196Y0116349D01*
X0296228Y0116371D01*
X0296258Y0116396D01*
X0296286Y0116424D01*
X0296311Y0116454D01*
X0296333Y0116486D01*
X0296352Y0116520D01*
X0296368Y0116556D01*
X0296380Y0116593D01*
X0296389Y0116630D01*
X0296394Y0116669D01*
X0296396Y0116708D01*
X0296396Y0118186D01*
X0297557Y0117342D02*
X0297557Y0116814D01*
X0297556Y0116814D02*
X0297558Y0116769D01*
X0297564Y0116725D01*
X0297573Y0116681D01*
X0297586Y0116638D01*
X0297603Y0116597D01*
X0297623Y0116556D01*
X0297647Y0116518D01*
X0297673Y0116482D01*
X0297703Y0116449D01*
X0297735Y0116418D01*
X0297770Y0116389D01*
X0297807Y0116364D01*
X0297846Y0116343D01*
X0297887Y0116324D01*
X0297929Y0116309D01*
X0297973Y0116298D01*
X0298017Y0116290D01*
X0298062Y0116286D01*
X0298106Y0116286D01*
X0298151Y0116290D01*
X0298195Y0116298D01*
X0298239Y0116309D01*
X0298281Y0116324D01*
X0298322Y0116343D01*
X0298361Y0116364D01*
X0298398Y0116389D01*
X0298433Y0116418D01*
X0298465Y0116449D01*
X0298495Y0116482D01*
X0298521Y0116518D01*
X0298545Y0116556D01*
X0298565Y0116597D01*
X0298582Y0116638D01*
X0298595Y0116681D01*
X0298604Y0116725D01*
X0298610Y0116769D01*
X0298612Y0116814D01*
X0298612Y0116920D01*
X0298610Y0116959D01*
X0298605Y0116998D01*
X0298596Y0117035D01*
X0298584Y0117072D01*
X0298568Y0117108D01*
X0298549Y0117142D01*
X0298527Y0117174D01*
X0298502Y0117204D01*
X0298474Y0117232D01*
X0298444Y0117257D01*
X0298412Y0117279D01*
X0298378Y0117298D01*
X0298342Y0117314D01*
X0298305Y0117326D01*
X0298268Y0117335D01*
X0298229Y0117340D01*
X0298190Y0117342D01*
X0297557Y0117342D01*
X0297559Y0117400D01*
X0297565Y0117457D01*
X0297575Y0117514D01*
X0297588Y0117570D01*
X0297606Y0117625D01*
X0297627Y0117678D01*
X0297652Y0117730D01*
X0297680Y0117781D01*
X0297711Y0117829D01*
X0297746Y0117875D01*
X0297784Y0117918D01*
X0297825Y0117959D01*
X0297868Y0117997D01*
X0297914Y0118032D01*
X0297962Y0118063D01*
X0298013Y0118091D01*
X0298065Y0118116D01*
X0298118Y0118137D01*
X0298173Y0118155D01*
X0298229Y0118168D01*
X0298286Y0118178D01*
X0298343Y0118184D01*
X0298401Y0118186D01*
X0247431Y0097023D02*
X0246375Y0097023D01*
X0246798Y0098501D01*
X0247114Y0097446D02*
X0247114Y0096601D01*
X0245215Y0097023D02*
X0245215Y0098501D01*
X0245215Y0097023D02*
X0245213Y0096984D01*
X0245208Y0096945D01*
X0245199Y0096908D01*
X0245187Y0096871D01*
X0245171Y0096835D01*
X0245152Y0096801D01*
X0245130Y0096769D01*
X0245105Y0096739D01*
X0245077Y0096711D01*
X0245047Y0096686D01*
X0245015Y0096664D01*
X0244981Y0096645D01*
X0244945Y0096629D01*
X0244908Y0096617D01*
X0244871Y0096608D01*
X0244832Y0096603D01*
X0244793Y0096601D01*
X0244581Y0096601D01*
X0279228Y0068614D02*
X0279228Y0065114D01*
X0279226Y0065054D01*
X0279221Y0064993D01*
X0279212Y0064934D01*
X0279199Y0064875D01*
X0279183Y0064816D01*
X0279163Y0064759D01*
X0279140Y0064704D01*
X0279113Y0064649D01*
X0279084Y0064597D01*
X0279051Y0064546D01*
X0279015Y0064497D01*
X0278977Y0064451D01*
X0278935Y0064407D01*
X0278891Y0064365D01*
X0278845Y0064327D01*
X0278796Y0064291D01*
X0278745Y0064258D01*
X0278693Y0064229D01*
X0278638Y0064202D01*
X0278583Y0064179D01*
X0278526Y0064159D01*
X0278467Y0064143D01*
X0278408Y0064130D01*
X0278349Y0064121D01*
X0278288Y0064116D01*
X0278228Y0064114D01*
X0277728Y0064114D01*
X0281583Y0064114D02*
X0281583Y0068614D01*
X0282833Y0068614D01*
X0282902Y0068612D01*
X0282971Y0068606D01*
X0283039Y0068597D01*
X0283106Y0068584D01*
X0283173Y0068567D01*
X0283239Y0068546D01*
X0283303Y0068522D01*
X0283366Y0068494D01*
X0283428Y0068463D01*
X0283488Y0068429D01*
X0283545Y0068391D01*
X0283601Y0068350D01*
X0283654Y0068307D01*
X0283705Y0068260D01*
X0283753Y0068211D01*
X0283798Y0068159D01*
X0283840Y0068104D01*
X0283879Y0068048D01*
X0283916Y0067989D01*
X0283948Y0067928D01*
X0283978Y0067866D01*
X0284004Y0067802D01*
X0284026Y0067737D01*
X0284045Y0067671D01*
X0284060Y0067604D01*
X0284071Y0067536D01*
X0284079Y0067467D01*
X0284083Y0067398D01*
X0284083Y0067330D01*
X0284079Y0067261D01*
X0284071Y0067192D01*
X0284060Y0067124D01*
X0284045Y0067057D01*
X0284026Y0066991D01*
X0284004Y0066926D01*
X0283978Y0066862D01*
X0283948Y0066800D01*
X0283916Y0066739D01*
X0283879Y0066680D01*
X0283840Y0066624D01*
X0283798Y0066569D01*
X0283753Y0066517D01*
X0283705Y0066468D01*
X0283654Y0066421D01*
X0283601Y0066378D01*
X0283545Y0066337D01*
X0283488Y0066299D01*
X0283428Y0066265D01*
X0283366Y0066234D01*
X0283303Y0066206D01*
X0283239Y0066182D01*
X0283173Y0066161D01*
X0283106Y0066144D01*
X0283039Y0066131D01*
X0282971Y0066122D01*
X0282902Y0066116D01*
X0282833Y0066114D01*
X0281583Y0066114D01*
X0285858Y0064114D02*
X0287108Y0064114D01*
X0287177Y0064116D01*
X0287246Y0064122D01*
X0287314Y0064131D01*
X0287381Y0064144D01*
X0287448Y0064161D01*
X0287514Y0064182D01*
X0287578Y0064206D01*
X0287641Y0064234D01*
X0287703Y0064265D01*
X0287763Y0064299D01*
X0287820Y0064337D01*
X0287876Y0064378D01*
X0287929Y0064421D01*
X0287980Y0064468D01*
X0288028Y0064517D01*
X0288073Y0064569D01*
X0288115Y0064624D01*
X0288154Y0064680D01*
X0288191Y0064739D01*
X0288223Y0064800D01*
X0288253Y0064862D01*
X0288279Y0064926D01*
X0288301Y0064991D01*
X0288320Y0065057D01*
X0288335Y0065124D01*
X0288346Y0065192D01*
X0288354Y0065261D01*
X0288358Y0065330D01*
X0288358Y0065398D01*
X0288354Y0065467D01*
X0288346Y0065536D01*
X0288335Y0065604D01*
X0288320Y0065671D01*
X0288301Y0065737D01*
X0288279Y0065802D01*
X0288253Y0065866D01*
X0288223Y0065928D01*
X0288191Y0065989D01*
X0288154Y0066048D01*
X0288115Y0066104D01*
X0288073Y0066159D01*
X0288028Y0066211D01*
X0287980Y0066260D01*
X0287929Y0066307D01*
X0287876Y0066350D01*
X0287820Y0066391D01*
X0287763Y0066429D01*
X0287703Y0066463D01*
X0287641Y0066494D01*
X0287578Y0066522D01*
X0287514Y0066546D01*
X0287448Y0066567D01*
X0287381Y0066584D01*
X0287314Y0066597D01*
X0287246Y0066606D01*
X0287177Y0066612D01*
X0287108Y0066614D01*
X0287358Y0066614D02*
X0286358Y0066614D01*
X0287358Y0066614D02*
X0287420Y0066616D01*
X0287481Y0066622D01*
X0287542Y0066631D01*
X0287602Y0066644D01*
X0287661Y0066661D01*
X0287719Y0066682D01*
X0287776Y0066706D01*
X0287831Y0066733D01*
X0287884Y0066764D01*
X0287936Y0066798D01*
X0287985Y0066835D01*
X0288032Y0066875D01*
X0288076Y0066918D01*
X0288117Y0066963D01*
X0288156Y0067011D01*
X0288192Y0067062D01*
X0288224Y0067114D01*
X0288253Y0067168D01*
X0288279Y0067224D01*
X0288301Y0067282D01*
X0288320Y0067340D01*
X0288335Y0067400D01*
X0288346Y0067461D01*
X0288354Y0067522D01*
X0288358Y0067583D01*
X0288358Y0067645D01*
X0288354Y0067706D01*
X0288346Y0067767D01*
X0288335Y0067828D01*
X0288320Y0067888D01*
X0288301Y0067946D01*
X0288279Y0068004D01*
X0288253Y0068060D01*
X0288224Y0068114D01*
X0288192Y0068166D01*
X0288156Y0068217D01*
X0288117Y0068265D01*
X0288076Y0068310D01*
X0288032Y0068353D01*
X0287985Y0068393D01*
X0287936Y0068430D01*
X0287884Y0068464D01*
X0287831Y0068495D01*
X0287776Y0068522D01*
X0287719Y0068546D01*
X0287661Y0068567D01*
X0287602Y0068584D01*
X0287542Y0068597D01*
X0287481Y0068606D01*
X0287420Y0068612D01*
X0287358Y0068614D01*
X0285858Y0068614D01*
X0164841Y0095369D02*
X0164841Y0095580D01*
X0164839Y0095619D01*
X0164834Y0095658D01*
X0164825Y0095695D01*
X0164813Y0095732D01*
X0164797Y0095768D01*
X0164778Y0095802D01*
X0164756Y0095834D01*
X0164731Y0095864D01*
X0164703Y0095892D01*
X0164673Y0095917D01*
X0164641Y0095939D01*
X0164607Y0095958D01*
X0164571Y0095974D01*
X0164534Y0095986D01*
X0164497Y0095995D01*
X0164458Y0096000D01*
X0164419Y0096002D01*
X0162941Y0096002D01*
X0163785Y0098060D02*
X0163756Y0098088D01*
X0163724Y0098115D01*
X0163690Y0098138D01*
X0163654Y0098159D01*
X0163617Y0098177D01*
X0163578Y0098191D01*
X0163539Y0098203D01*
X0163498Y0098211D01*
X0163457Y0098216D01*
X0163416Y0098218D01*
X0163786Y0098060D02*
X0164841Y0097163D01*
X0164841Y0098218D01*
X0163364Y0097163D02*
X0163319Y0097179D01*
X0163276Y0097199D01*
X0163234Y0097223D01*
X0163194Y0097249D01*
X0163156Y0097279D01*
X0163121Y0097311D01*
X0163088Y0097347D01*
X0163059Y0097384D01*
X0163032Y0097424D01*
X0163009Y0097466D01*
X0162988Y0097509D01*
X0162972Y0097554D01*
X0162959Y0097601D01*
X0162950Y0097648D01*
X0162944Y0097695D01*
X0162942Y0097743D01*
X0162941Y0097743D02*
X0162943Y0097784D01*
X0162948Y0097826D01*
X0162957Y0097866D01*
X0162970Y0097905D01*
X0162986Y0097944D01*
X0163005Y0097981D01*
X0163027Y0098015D01*
X0163052Y0098048D01*
X0163080Y0098079D01*
X0163111Y0098107D01*
X0163144Y0098132D01*
X0163179Y0098154D01*
X0163215Y0098173D01*
X0163254Y0098189D01*
X0163293Y0098202D01*
X0163334Y0098211D01*
X0163375Y0098216D01*
X0163416Y0098218D01*
X0119606Y0137035D02*
X0118860Y0137782D01*
X0120241Y0137894D01*
X0120614Y0138714D02*
X0120579Y0138747D01*
X0120542Y0138777D01*
X0120502Y0138803D01*
X0120460Y0138827D01*
X0120416Y0138847D01*
X0120371Y0138863D01*
X0120325Y0138876D01*
X0120278Y0138886D01*
X0120231Y0138891D01*
X0120183Y0138893D01*
X0120135Y0138891D01*
X0120087Y0138885D01*
X0120040Y0138876D01*
X0119994Y0138863D01*
X0119949Y0138846D01*
X0119906Y0138826D01*
X0120241Y0137894D02*
X0120282Y0137895D01*
X0120323Y0137899D01*
X0120364Y0137906D01*
X0120404Y0137917D01*
X0120442Y0137930D01*
X0120480Y0137947D01*
X0120516Y0137967D01*
X0120551Y0137990D01*
X0120583Y0138015D01*
X0120614Y0138043D01*
X0120642Y0138074D01*
X0120667Y0138107D01*
X0120689Y0138141D01*
X0120708Y0138178D01*
X0120724Y0138217D01*
X0120737Y0138256D01*
X0120746Y0138297D01*
X0120751Y0138338D01*
X0120753Y0138379D01*
X0120751Y0138420D01*
X0120746Y0138461D01*
X0120737Y0138502D01*
X0120724Y0138541D01*
X0120709Y0138580D01*
X0120689Y0138616D01*
X0120667Y0138651D01*
X0120642Y0138684D01*
X0120614Y0138715D01*
X0119067Y0140262D02*
X0118694Y0140635D01*
X0117350Y0139291D01*
X0117948Y0139889D02*
X0118321Y0139515D01*
X0118395Y0139441D02*
X0118097Y0138545D01*
X0118321Y0139516D02*
X0118354Y0139485D01*
X0118389Y0139458D01*
X0118427Y0139434D01*
X0118466Y0139413D01*
X0118508Y0139395D01*
X0118550Y0139381D01*
X0118594Y0139371D01*
X0118638Y0139364D01*
X0118683Y0139361D01*
X0118728Y0139362D01*
X0118772Y0139367D01*
X0118816Y0139375D01*
X0118859Y0139388D01*
X0118901Y0139403D01*
X0118942Y0139423D01*
X0118980Y0139445D01*
X0119017Y0139471D01*
X0119051Y0139500D01*
X0119083Y0139532D01*
X0119112Y0139566D01*
X0119138Y0139603D01*
X0119160Y0139641D01*
X0119180Y0139682D01*
X0119195Y0139724D01*
X0119208Y0139767D01*
X0119216Y0139811D01*
X0119221Y0139855D01*
X0119222Y0139900D01*
X0119219Y0139945D01*
X0119212Y0139989D01*
X0119202Y0140033D01*
X0119188Y0140075D01*
X0119170Y0140117D01*
X0119149Y0140156D01*
X0119125Y0140194D01*
X0119098Y0140229D01*
X0119067Y0140262D01*
X0165841Y0155656D02*
X0166052Y0155656D01*
X0166052Y0155657D02*
X0166091Y0155659D01*
X0166130Y0155664D01*
X0166167Y0155673D01*
X0166204Y0155685D01*
X0166240Y0155701D01*
X0166274Y0155720D01*
X0166306Y0155742D01*
X0166336Y0155767D01*
X0166364Y0155795D01*
X0166389Y0155825D01*
X0166411Y0155857D01*
X0166430Y0155891D01*
X0166446Y0155927D01*
X0166458Y0155964D01*
X0166467Y0156001D01*
X0166472Y0156040D01*
X0166474Y0156079D01*
X0166475Y0156079D02*
X0166475Y0157556D01*
X0167635Y0157556D02*
X0168269Y0157556D01*
X0168309Y0157554D01*
X0168349Y0157548D01*
X0168388Y0157539D01*
X0168426Y0157526D01*
X0168462Y0157509D01*
X0168497Y0157489D01*
X0168530Y0157466D01*
X0168560Y0157439D01*
X0168588Y0157410D01*
X0168613Y0157379D01*
X0168634Y0157345D01*
X0168653Y0157309D01*
X0168668Y0157272D01*
X0168679Y0157233D01*
X0168687Y0157194D01*
X0168691Y0157154D01*
X0168691Y0157114D01*
X0168687Y0157074D01*
X0168679Y0157035D01*
X0168668Y0156996D01*
X0168653Y0156959D01*
X0168634Y0156923D01*
X0168613Y0156889D01*
X0168588Y0156858D01*
X0168560Y0156829D01*
X0168530Y0156802D01*
X0168497Y0156779D01*
X0168462Y0156759D01*
X0168426Y0156742D01*
X0168388Y0156729D01*
X0168349Y0156720D01*
X0168309Y0156714D01*
X0168269Y0156712D01*
X0167846Y0156712D01*
X0168163Y0156712D02*
X0168208Y0156710D01*
X0168252Y0156704D01*
X0168296Y0156695D01*
X0168339Y0156682D01*
X0168380Y0156665D01*
X0168421Y0156645D01*
X0168459Y0156621D01*
X0168495Y0156595D01*
X0168528Y0156565D01*
X0168559Y0156533D01*
X0168588Y0156498D01*
X0168613Y0156461D01*
X0168634Y0156422D01*
X0168653Y0156381D01*
X0168668Y0156339D01*
X0168679Y0156295D01*
X0168687Y0156251D01*
X0168691Y0156206D01*
X0168691Y0156162D01*
X0168687Y0156117D01*
X0168679Y0156073D01*
X0168668Y0156029D01*
X0168653Y0155987D01*
X0168634Y0155946D01*
X0168613Y0155907D01*
X0168588Y0155870D01*
X0168559Y0155835D01*
X0168528Y0155803D01*
X0168495Y0155773D01*
X0168459Y0155747D01*
X0168421Y0155723D01*
X0168380Y0155703D01*
X0168339Y0155686D01*
X0168296Y0155673D01*
X0168252Y0155664D01*
X0168208Y0155658D01*
X0168163Y0155656D01*
X0167635Y0155656D01*
X0197504Y0173125D02*
X0197543Y0173123D01*
X0197582Y0173118D01*
X0197619Y0173109D01*
X0197656Y0173097D01*
X0197692Y0173081D01*
X0197726Y0173062D01*
X0197758Y0173040D01*
X0197788Y0173015D01*
X0197816Y0172987D01*
X0197841Y0172957D01*
X0197863Y0172925D01*
X0197882Y0172891D01*
X0197898Y0172855D01*
X0197910Y0172818D01*
X0197919Y0172781D01*
X0197924Y0172742D01*
X0197926Y0172703D01*
X0197926Y0172492D01*
X0197504Y0173125D02*
X0196026Y0173125D01*
X0196449Y0174286D02*
X0196026Y0174814D01*
X0197926Y0174814D01*
X0197926Y0175341D02*
X0197926Y0174286D01*
X0164754Y0200491D02*
X0164752Y0200446D01*
X0164746Y0200402D01*
X0164737Y0200358D01*
X0164724Y0200315D01*
X0164707Y0200274D01*
X0164687Y0200233D01*
X0164663Y0200195D01*
X0164637Y0200159D01*
X0164607Y0200126D01*
X0164575Y0200095D01*
X0164540Y0200066D01*
X0164503Y0200041D01*
X0164464Y0200020D01*
X0164423Y0200001D01*
X0164381Y0199986D01*
X0164337Y0199975D01*
X0164293Y0199967D01*
X0164248Y0199963D01*
X0164204Y0199963D01*
X0164159Y0199967D01*
X0164115Y0199975D01*
X0164071Y0199986D01*
X0164029Y0200001D01*
X0163988Y0200020D01*
X0163949Y0200041D01*
X0163912Y0200066D01*
X0163877Y0200095D01*
X0163845Y0200126D01*
X0163815Y0200159D01*
X0163789Y0200195D01*
X0163765Y0200233D01*
X0163745Y0200274D01*
X0163728Y0200315D01*
X0163715Y0200358D01*
X0163706Y0200402D01*
X0163700Y0200446D01*
X0163698Y0200491D01*
X0163700Y0200536D01*
X0163706Y0200580D01*
X0163715Y0200624D01*
X0163728Y0200667D01*
X0163745Y0200708D01*
X0163765Y0200749D01*
X0163789Y0200787D01*
X0163815Y0200823D01*
X0163845Y0200856D01*
X0163877Y0200887D01*
X0163912Y0200916D01*
X0163949Y0200941D01*
X0163988Y0200962D01*
X0164029Y0200981D01*
X0164071Y0200996D01*
X0164115Y0201007D01*
X0164159Y0201015D01*
X0164204Y0201019D01*
X0164248Y0201019D01*
X0164293Y0201015D01*
X0164337Y0201007D01*
X0164381Y0200996D01*
X0164423Y0200981D01*
X0164464Y0200962D01*
X0164503Y0200941D01*
X0164540Y0200916D01*
X0164575Y0200887D01*
X0164607Y0200856D01*
X0164637Y0200823D01*
X0164663Y0200787D01*
X0164687Y0200749D01*
X0164707Y0200708D01*
X0164724Y0200667D01*
X0164737Y0200624D01*
X0164746Y0200580D01*
X0164752Y0200536D01*
X0164754Y0200491D01*
X0164648Y0201441D02*
X0164646Y0201401D01*
X0164640Y0201361D01*
X0164631Y0201322D01*
X0164618Y0201284D01*
X0164601Y0201248D01*
X0164581Y0201213D01*
X0164558Y0201180D01*
X0164531Y0201150D01*
X0164502Y0201122D01*
X0164471Y0201097D01*
X0164437Y0201076D01*
X0164401Y0201057D01*
X0164364Y0201042D01*
X0164325Y0201031D01*
X0164286Y0201023D01*
X0164246Y0201019D01*
X0164206Y0201019D01*
X0164166Y0201023D01*
X0164127Y0201031D01*
X0164088Y0201042D01*
X0164051Y0201057D01*
X0164015Y0201076D01*
X0163981Y0201097D01*
X0163950Y0201122D01*
X0163921Y0201150D01*
X0163894Y0201180D01*
X0163871Y0201213D01*
X0163851Y0201248D01*
X0163834Y0201284D01*
X0163821Y0201322D01*
X0163812Y0201361D01*
X0163806Y0201401D01*
X0163804Y0201441D01*
X0163806Y0201481D01*
X0163812Y0201521D01*
X0163821Y0201560D01*
X0163834Y0201598D01*
X0163851Y0201634D01*
X0163871Y0201669D01*
X0163894Y0201702D01*
X0163921Y0201732D01*
X0163950Y0201760D01*
X0163981Y0201785D01*
X0164015Y0201806D01*
X0164051Y0201825D01*
X0164088Y0201840D01*
X0164127Y0201851D01*
X0164166Y0201859D01*
X0164206Y0201863D01*
X0164246Y0201863D01*
X0164286Y0201859D01*
X0164325Y0201851D01*
X0164364Y0201840D01*
X0164401Y0201825D01*
X0164437Y0201806D01*
X0164471Y0201785D01*
X0164502Y0201760D01*
X0164531Y0201732D01*
X0164558Y0201702D01*
X0164581Y0201669D01*
X0164601Y0201634D01*
X0164618Y0201598D01*
X0164631Y0201560D01*
X0164640Y0201521D01*
X0164646Y0201481D01*
X0164648Y0201441D01*
X0162538Y0201863D02*
X0162538Y0200386D01*
X0162537Y0200386D02*
X0162535Y0200347D01*
X0162530Y0200308D01*
X0162521Y0200271D01*
X0162509Y0200234D01*
X0162493Y0200198D01*
X0162474Y0200164D01*
X0162452Y0200132D01*
X0162427Y0200102D01*
X0162399Y0200074D01*
X0162369Y0200049D01*
X0162337Y0200027D01*
X0162303Y0200008D01*
X0162267Y0199992D01*
X0162230Y0199980D01*
X0162193Y0199971D01*
X0162154Y0199966D01*
X0162115Y0199964D01*
X0162115Y0199963D02*
X0161904Y0199963D01*
X0161904Y0211774D02*
X0162115Y0211774D01*
X0162115Y0211775D02*
X0162154Y0211777D01*
X0162193Y0211782D01*
X0162230Y0211791D01*
X0162267Y0211803D01*
X0162303Y0211819D01*
X0162337Y0211838D01*
X0162369Y0211860D01*
X0162399Y0211885D01*
X0162427Y0211913D01*
X0162452Y0211943D01*
X0162474Y0211975D01*
X0162493Y0212009D01*
X0162509Y0212045D01*
X0162521Y0212082D01*
X0162530Y0212119D01*
X0162535Y0212158D01*
X0162537Y0212197D01*
X0162538Y0212197D02*
X0162538Y0213674D01*
X0163698Y0213147D02*
X0163698Y0213041D01*
X0163700Y0213002D01*
X0163705Y0212963D01*
X0163714Y0212926D01*
X0163726Y0212889D01*
X0163742Y0212853D01*
X0163761Y0212819D01*
X0163783Y0212787D01*
X0163808Y0212757D01*
X0163836Y0212729D01*
X0163866Y0212704D01*
X0163898Y0212682D01*
X0163932Y0212663D01*
X0163968Y0212647D01*
X0164005Y0212635D01*
X0164042Y0212626D01*
X0164081Y0212621D01*
X0164120Y0212619D01*
X0164754Y0212619D01*
X0164754Y0213147D01*
X0164752Y0213192D01*
X0164746Y0213236D01*
X0164737Y0213280D01*
X0164724Y0213323D01*
X0164707Y0213364D01*
X0164687Y0213405D01*
X0164663Y0213443D01*
X0164637Y0213479D01*
X0164607Y0213512D01*
X0164575Y0213543D01*
X0164540Y0213572D01*
X0164503Y0213597D01*
X0164464Y0213618D01*
X0164423Y0213637D01*
X0164381Y0213652D01*
X0164337Y0213663D01*
X0164293Y0213671D01*
X0164248Y0213675D01*
X0164204Y0213675D01*
X0164159Y0213671D01*
X0164115Y0213663D01*
X0164071Y0213652D01*
X0164029Y0213637D01*
X0163988Y0213618D01*
X0163949Y0213597D01*
X0163912Y0213572D01*
X0163877Y0213543D01*
X0163845Y0213512D01*
X0163815Y0213479D01*
X0163789Y0213443D01*
X0163765Y0213405D01*
X0163745Y0213364D01*
X0163728Y0213323D01*
X0163715Y0213280D01*
X0163706Y0213236D01*
X0163700Y0213192D01*
X0163698Y0213147D01*
X0164753Y0212619D02*
X0164751Y0212564D01*
X0164746Y0212509D01*
X0164737Y0212454D01*
X0164724Y0212401D01*
X0164708Y0212348D01*
X0164689Y0212296D01*
X0164666Y0212246D01*
X0164640Y0212197D01*
X0164611Y0212150D01*
X0164579Y0212105D01*
X0164544Y0212063D01*
X0164506Y0212022D01*
X0164465Y0211984D01*
X0164423Y0211949D01*
X0164378Y0211917D01*
X0164331Y0211888D01*
X0164282Y0211862D01*
X0164232Y0211839D01*
X0164180Y0211820D01*
X0164127Y0211804D01*
X0164074Y0211791D01*
X0164019Y0211782D01*
X0163964Y0211777D01*
X0163909Y0211775D01*
X0275351Y0181686D02*
X0276694Y0180343D01*
X0276097Y0180940D02*
X0276470Y0181313D01*
X0276545Y0181387D02*
X0277441Y0181089D01*
X0278204Y0181852D02*
X0278950Y0182599D01*
X0278577Y0182225D02*
X0277234Y0183569D01*
X0277159Y0182897D01*
X0275724Y0182059D02*
X0275757Y0182090D01*
X0275792Y0182117D01*
X0275830Y0182141D01*
X0275869Y0182162D01*
X0275911Y0182180D01*
X0275953Y0182194D01*
X0275997Y0182204D01*
X0276041Y0182211D01*
X0276086Y0182214D01*
X0276131Y0182213D01*
X0276175Y0182208D01*
X0276219Y0182200D01*
X0276262Y0182187D01*
X0276304Y0182172D01*
X0276345Y0182152D01*
X0276383Y0182130D01*
X0276420Y0182104D01*
X0276454Y0182075D01*
X0276486Y0182043D01*
X0276515Y0182009D01*
X0276541Y0181972D01*
X0276563Y0181934D01*
X0276583Y0181893D01*
X0276598Y0181851D01*
X0276611Y0181808D01*
X0276619Y0181764D01*
X0276624Y0181720D01*
X0276625Y0181675D01*
X0276622Y0181630D01*
X0276615Y0181586D01*
X0276605Y0181542D01*
X0276591Y0181500D01*
X0276573Y0181458D01*
X0276552Y0181419D01*
X0276528Y0181381D01*
X0276501Y0181346D01*
X0276470Y0181313D01*
X0275724Y0182059D02*
X0275351Y0181686D01*
X0383583Y0162245D02*
X0383583Y0152245D01*
X0423583Y0152245D01*
X0423583Y0162245D01*
X0383583Y0162245D01*
X0109636Y0055194D02*
X0109108Y0053294D01*
X0107420Y0053716D02*
X0107420Y0055194D01*
X0108580Y0055194D02*
X0109636Y0055194D01*
X0108580Y0055194D02*
X0108580Y0054983D01*
X0107419Y0053716D02*
X0107417Y0053677D01*
X0107412Y0053638D01*
X0107403Y0053601D01*
X0107391Y0053564D01*
X0107375Y0053528D01*
X0107356Y0053494D01*
X0107334Y0053462D01*
X0107309Y0053432D01*
X0107281Y0053404D01*
X0107251Y0053379D01*
X0107219Y0053357D01*
X0107185Y0053338D01*
X0107149Y0053322D01*
X0107112Y0053310D01*
X0107075Y0053301D01*
X0107036Y0053296D01*
X0106997Y0053294D01*
X0106786Y0053294D01*
X0047344Y0039775D02*
X0047344Y0037275D01*
X0044844Y0039400D01*
X0042845Y0038650D02*
X0042847Y0038577D01*
X0042852Y0038505D01*
X0042861Y0038433D01*
X0042874Y0038361D01*
X0042890Y0038290D01*
X0042910Y0038220D01*
X0042934Y0038152D01*
X0042960Y0038084D01*
X0042991Y0038018D01*
X0043024Y0037953D01*
X0043061Y0037891D01*
X0043100Y0037830D01*
X0043143Y0037771D01*
X0043189Y0037714D01*
X0043237Y0037660D01*
X0043288Y0037609D01*
X0043342Y0037559D01*
X0043398Y0037513D01*
X0043456Y0037470D01*
X0043517Y0037429D01*
X0043579Y0037392D01*
X0043643Y0037358D01*
X0043709Y0037327D01*
X0043776Y0037299D01*
X0043845Y0037275D01*
X0044844Y0039400D02*
X0044798Y0039446D01*
X0044749Y0039490D01*
X0044698Y0039530D01*
X0044645Y0039568D01*
X0044590Y0039603D01*
X0044533Y0039635D01*
X0044475Y0039664D01*
X0044415Y0039690D01*
X0044353Y0039712D01*
X0044291Y0039731D01*
X0044228Y0039747D01*
X0044164Y0039759D01*
X0044099Y0039768D01*
X0044034Y0039773D01*
X0043969Y0039775D01*
X0043904Y0039773D01*
X0043838Y0039767D01*
X0043774Y0039758D01*
X0043710Y0039745D01*
X0043646Y0039728D01*
X0043584Y0039707D01*
X0043523Y0039683D01*
X0043464Y0039655D01*
X0043407Y0039624D01*
X0043351Y0039590D01*
X0043297Y0039552D01*
X0043246Y0039512D01*
X0043197Y0039468D01*
X0043151Y0039422D01*
X0043107Y0039373D01*
X0043067Y0039322D01*
X0043029Y0039268D01*
X0042995Y0039213D01*
X0042964Y0039155D01*
X0042936Y0039096D01*
X0042912Y0039035D01*
X0042891Y0038973D01*
X0042874Y0038909D01*
X0042861Y0038845D01*
X0042852Y0038781D01*
X0042846Y0038715D01*
X0042844Y0038650D01*
X0042844Y0034250D02*
X0042844Y0033000D01*
X0047344Y0033000D01*
X0045344Y0033000D02*
X0045344Y0034250D01*
X0045342Y0034319D01*
X0045336Y0034388D01*
X0045327Y0034456D01*
X0045314Y0034523D01*
X0045297Y0034590D01*
X0045276Y0034656D01*
X0045252Y0034720D01*
X0045224Y0034783D01*
X0045193Y0034845D01*
X0045159Y0034905D01*
X0045121Y0034962D01*
X0045080Y0035018D01*
X0045037Y0035071D01*
X0044990Y0035122D01*
X0044941Y0035170D01*
X0044889Y0035215D01*
X0044834Y0035257D01*
X0044778Y0035296D01*
X0044719Y0035333D01*
X0044658Y0035365D01*
X0044596Y0035395D01*
X0044532Y0035421D01*
X0044467Y0035443D01*
X0044401Y0035462D01*
X0044334Y0035477D01*
X0044266Y0035488D01*
X0044197Y0035496D01*
X0044128Y0035500D01*
X0044060Y0035500D01*
X0043991Y0035496D01*
X0043922Y0035488D01*
X0043854Y0035477D01*
X0043787Y0035462D01*
X0043721Y0035443D01*
X0043656Y0035421D01*
X0043592Y0035395D01*
X0043530Y0035365D01*
X0043469Y0035333D01*
X0043410Y0035296D01*
X0043354Y0035257D01*
X0043299Y0035215D01*
X0043247Y0035170D01*
X0043198Y0035122D01*
X0043151Y0035071D01*
X0043108Y0035018D01*
X0043067Y0034962D01*
X0043029Y0034905D01*
X0042995Y0034845D01*
X0042964Y0034783D01*
X0042936Y0034720D01*
X0042912Y0034656D01*
X0042891Y0034590D01*
X0042874Y0034523D01*
X0042861Y0034456D01*
X0042852Y0034388D01*
X0042846Y0034319D01*
X0042844Y0034250D01*
X0042844Y0030646D02*
X0046344Y0030646D01*
X0046404Y0030644D01*
X0046465Y0030639D01*
X0046524Y0030630D01*
X0046583Y0030617D01*
X0046642Y0030601D01*
X0046699Y0030581D01*
X0046754Y0030558D01*
X0046809Y0030531D01*
X0046861Y0030502D01*
X0046912Y0030469D01*
X0046961Y0030433D01*
X0047007Y0030395D01*
X0047051Y0030353D01*
X0047093Y0030309D01*
X0047131Y0030263D01*
X0047167Y0030214D01*
X0047200Y0030163D01*
X0047229Y0030111D01*
X0047256Y0030056D01*
X0047279Y0030001D01*
X0047299Y0029944D01*
X0047315Y0029885D01*
X0047328Y0029826D01*
X0047337Y0029767D01*
X0047342Y0029706D01*
X0047344Y0029646D01*
X0047344Y0029146D01*
D12*
X0044820Y0072071D02*
X0040220Y0072071D01*
X0040220Y0073349D01*
X0040222Y0073419D01*
X0040228Y0073490D01*
X0040237Y0073559D01*
X0040251Y0073628D01*
X0040268Y0073697D01*
X0040289Y0073764D01*
X0040314Y0073830D01*
X0040342Y0073894D01*
X0040374Y0073957D01*
X0040409Y0074018D01*
X0040448Y0074077D01*
X0040489Y0074134D01*
X0040534Y0074188D01*
X0040582Y0074240D01*
X0040632Y0074289D01*
X0040686Y0074336D01*
X0040741Y0074379D01*
X0040799Y0074419D01*
X0040859Y0074456D01*
X0040921Y0074489D01*
X0040985Y0074519D01*
X0041050Y0074546D01*
X0041116Y0074569D01*
X0041184Y0074588D01*
X0041253Y0074603D01*
X0041322Y0074615D01*
X0041392Y0074623D01*
X0041463Y0074627D01*
X0041533Y0074627D01*
X0041604Y0074623D01*
X0041674Y0074615D01*
X0041743Y0074603D01*
X0041812Y0074588D01*
X0041880Y0074569D01*
X0041946Y0074546D01*
X0042011Y0074519D01*
X0042075Y0074489D01*
X0042137Y0074456D01*
X0042197Y0074419D01*
X0042255Y0074379D01*
X0042310Y0074336D01*
X0042364Y0074289D01*
X0042414Y0074240D01*
X0042462Y0074188D01*
X0042507Y0074134D01*
X0042548Y0074077D01*
X0042587Y0074018D01*
X0042622Y0073957D01*
X0042654Y0073894D01*
X0042682Y0073830D01*
X0042707Y0073764D01*
X0042728Y0073697D01*
X0042745Y0073628D01*
X0042759Y0073559D01*
X0042768Y0073490D01*
X0042774Y0073419D01*
X0042776Y0073349D01*
X0042776Y0072071D01*
X0043798Y0076504D02*
X0041243Y0076504D01*
X0041181Y0076506D01*
X0041120Y0076511D01*
X0041059Y0076521D01*
X0040998Y0076534D01*
X0040939Y0076550D01*
X0040881Y0076570D01*
X0040824Y0076594D01*
X0040768Y0076621D01*
X0040714Y0076651D01*
X0040662Y0076685D01*
X0040613Y0076721D01*
X0040565Y0076761D01*
X0040520Y0076803D01*
X0040478Y0076848D01*
X0040439Y0076896D01*
X0040402Y0076945D01*
X0040368Y0076997D01*
X0040338Y0077051D01*
X0040311Y0077107D01*
X0040287Y0077164D01*
X0040267Y0077222D01*
X0040251Y0077281D01*
X0040238Y0077342D01*
X0040228Y0077403D01*
X0040223Y0077464D01*
X0040221Y0077526D01*
X0040220Y0077526D02*
X0040220Y0079060D01*
X0042265Y0079060D02*
X0044820Y0079060D01*
X0044820Y0077526D01*
X0044818Y0077464D01*
X0044813Y0077403D01*
X0044803Y0077342D01*
X0044790Y0077281D01*
X0044774Y0077222D01*
X0044754Y0077164D01*
X0044730Y0077107D01*
X0044703Y0077051D01*
X0044673Y0076997D01*
X0044639Y0076945D01*
X0044603Y0076896D01*
X0044563Y0076848D01*
X0044521Y0076803D01*
X0044476Y0076761D01*
X0044428Y0076721D01*
X0044379Y0076685D01*
X0044327Y0076651D01*
X0044273Y0076621D01*
X0044217Y0076594D01*
X0044160Y0076570D01*
X0044102Y0076550D01*
X0044043Y0076534D01*
X0043982Y0076521D01*
X0043921Y0076511D01*
X0043860Y0076506D01*
X0043798Y0076504D01*
X0042265Y0078293D02*
X0042265Y0079060D01*
X0040220Y0081304D02*
X0044820Y0083860D01*
X0040220Y0083860D01*
X0041243Y0086104D02*
X0043798Y0086104D01*
X0043860Y0086106D01*
X0043921Y0086111D01*
X0043982Y0086121D01*
X0044043Y0086134D01*
X0044102Y0086150D01*
X0044160Y0086170D01*
X0044217Y0086194D01*
X0044273Y0086221D01*
X0044327Y0086251D01*
X0044379Y0086285D01*
X0044428Y0086321D01*
X0044476Y0086361D01*
X0044521Y0086403D01*
X0044563Y0086448D01*
X0044603Y0086496D01*
X0044639Y0086545D01*
X0044673Y0086597D01*
X0044703Y0086651D01*
X0044730Y0086707D01*
X0044754Y0086764D01*
X0044774Y0086822D01*
X0044790Y0086881D01*
X0044803Y0086942D01*
X0044813Y0087003D01*
X0044818Y0087064D01*
X0044820Y0087126D01*
X0044820Y0088660D01*
X0042265Y0088660D01*
X0042265Y0087893D01*
X0041243Y0086104D02*
X0041181Y0086106D01*
X0041120Y0086111D01*
X0041059Y0086121D01*
X0040998Y0086134D01*
X0040939Y0086150D01*
X0040881Y0086170D01*
X0040824Y0086194D01*
X0040768Y0086221D01*
X0040714Y0086251D01*
X0040662Y0086285D01*
X0040613Y0086321D01*
X0040565Y0086361D01*
X0040520Y0086403D01*
X0040478Y0086448D01*
X0040439Y0086496D01*
X0040402Y0086545D01*
X0040368Y0086597D01*
X0040338Y0086651D01*
X0040311Y0086707D01*
X0040287Y0086764D01*
X0040267Y0086822D01*
X0040251Y0086881D01*
X0040238Y0086942D01*
X0040228Y0087003D01*
X0040223Y0087064D01*
X0040221Y0087126D01*
X0040220Y0087126D02*
X0040220Y0088660D01*
X0034820Y0082499D02*
X0034820Y0081221D01*
X0030220Y0081221D01*
X0030220Y0082499D01*
X0030221Y0082499D02*
X0030223Y0082562D01*
X0030229Y0082625D01*
X0030238Y0082687D01*
X0030252Y0082748D01*
X0030269Y0082809D01*
X0030290Y0082868D01*
X0030315Y0082926D01*
X0030343Y0082983D01*
X0030374Y0083037D01*
X0030409Y0083089D01*
X0030447Y0083140D01*
X0030488Y0083188D01*
X0030532Y0083233D01*
X0030578Y0083275D01*
X0030627Y0083315D01*
X0030678Y0083351D01*
X0030732Y0083384D01*
X0030787Y0083414D01*
X0030845Y0083440D01*
X0030903Y0083463D01*
X0030963Y0083482D01*
X0031024Y0083497D01*
X0031086Y0083509D01*
X0031149Y0083517D01*
X0031212Y0083521D01*
X0031274Y0083521D01*
X0031337Y0083517D01*
X0031400Y0083509D01*
X0031462Y0083497D01*
X0031523Y0083482D01*
X0031583Y0083463D01*
X0031641Y0083440D01*
X0031699Y0083414D01*
X0031754Y0083384D01*
X0031808Y0083351D01*
X0031859Y0083315D01*
X0031908Y0083275D01*
X0031954Y0083233D01*
X0031998Y0083188D01*
X0032039Y0083140D01*
X0032077Y0083089D01*
X0032112Y0083037D01*
X0032143Y0082983D01*
X0032171Y0082926D01*
X0032196Y0082868D01*
X0032217Y0082809D01*
X0032234Y0082748D01*
X0032248Y0082687D01*
X0032257Y0082625D01*
X0032263Y0082562D01*
X0032265Y0082499D01*
X0032265Y0081221D01*
X0032265Y0082499D02*
X0032267Y0082569D01*
X0032273Y0082640D01*
X0032282Y0082709D01*
X0032296Y0082778D01*
X0032313Y0082847D01*
X0032334Y0082914D01*
X0032359Y0082980D01*
X0032387Y0083044D01*
X0032419Y0083107D01*
X0032454Y0083168D01*
X0032493Y0083227D01*
X0032534Y0083284D01*
X0032579Y0083338D01*
X0032627Y0083390D01*
X0032677Y0083439D01*
X0032731Y0083486D01*
X0032786Y0083529D01*
X0032844Y0083569D01*
X0032904Y0083606D01*
X0032966Y0083639D01*
X0033030Y0083669D01*
X0033095Y0083696D01*
X0033161Y0083719D01*
X0033229Y0083738D01*
X0033298Y0083753D01*
X0033367Y0083765D01*
X0033437Y0083773D01*
X0033508Y0083777D01*
X0033578Y0083777D01*
X0033649Y0083773D01*
X0033719Y0083765D01*
X0033788Y0083753D01*
X0033857Y0083738D01*
X0033925Y0083719D01*
X0033991Y0083696D01*
X0034056Y0083669D01*
X0034120Y0083639D01*
X0034182Y0083606D01*
X0034242Y0083569D01*
X0034300Y0083529D01*
X0034355Y0083486D01*
X0034409Y0083439D01*
X0034459Y0083390D01*
X0034507Y0083338D01*
X0034552Y0083284D01*
X0034593Y0083227D01*
X0034632Y0083168D01*
X0034667Y0083107D01*
X0034699Y0083044D01*
X0034727Y0082980D01*
X0034752Y0082914D01*
X0034773Y0082847D01*
X0034790Y0082778D01*
X0034804Y0082709D01*
X0034813Y0082640D01*
X0034819Y0082569D01*
X0034821Y0082499D01*
X0034820Y0079089D02*
X0032776Y0078066D01*
X0032776Y0077811D02*
X0032776Y0076533D01*
X0032776Y0077811D02*
X0032774Y0077881D01*
X0032768Y0077952D01*
X0032759Y0078021D01*
X0032745Y0078090D01*
X0032728Y0078159D01*
X0032707Y0078226D01*
X0032682Y0078292D01*
X0032654Y0078356D01*
X0032622Y0078419D01*
X0032587Y0078480D01*
X0032548Y0078539D01*
X0032507Y0078596D01*
X0032462Y0078650D01*
X0032414Y0078702D01*
X0032364Y0078751D01*
X0032310Y0078798D01*
X0032255Y0078841D01*
X0032197Y0078881D01*
X0032137Y0078918D01*
X0032075Y0078951D01*
X0032011Y0078981D01*
X0031946Y0079008D01*
X0031880Y0079031D01*
X0031812Y0079050D01*
X0031743Y0079065D01*
X0031674Y0079077D01*
X0031604Y0079085D01*
X0031533Y0079089D01*
X0031463Y0079089D01*
X0031392Y0079085D01*
X0031322Y0079077D01*
X0031253Y0079065D01*
X0031184Y0079050D01*
X0031116Y0079031D01*
X0031050Y0079008D01*
X0030985Y0078981D01*
X0030921Y0078951D01*
X0030859Y0078918D01*
X0030799Y0078881D01*
X0030741Y0078841D01*
X0030686Y0078798D01*
X0030632Y0078751D01*
X0030582Y0078702D01*
X0030534Y0078650D01*
X0030489Y0078596D01*
X0030448Y0078539D01*
X0030409Y0078480D01*
X0030374Y0078419D01*
X0030342Y0078356D01*
X0030314Y0078292D01*
X0030289Y0078226D01*
X0030268Y0078159D01*
X0030251Y0078090D01*
X0030237Y0078021D01*
X0030228Y0077952D01*
X0030222Y0077881D01*
X0030220Y0077811D01*
X0030220Y0076533D01*
X0034820Y0076533D01*
X0032776Y0073349D02*
X0032776Y0072071D01*
X0032776Y0073349D02*
X0032774Y0073419D01*
X0032768Y0073490D01*
X0032759Y0073559D01*
X0032745Y0073628D01*
X0032728Y0073697D01*
X0032707Y0073764D01*
X0032682Y0073830D01*
X0032654Y0073894D01*
X0032622Y0073957D01*
X0032587Y0074018D01*
X0032548Y0074077D01*
X0032507Y0074134D01*
X0032462Y0074188D01*
X0032414Y0074240D01*
X0032364Y0074289D01*
X0032310Y0074336D01*
X0032255Y0074379D01*
X0032197Y0074419D01*
X0032137Y0074456D01*
X0032075Y0074489D01*
X0032011Y0074519D01*
X0031946Y0074546D01*
X0031880Y0074569D01*
X0031812Y0074588D01*
X0031743Y0074603D01*
X0031674Y0074615D01*
X0031604Y0074623D01*
X0031533Y0074627D01*
X0031463Y0074627D01*
X0031392Y0074623D01*
X0031322Y0074615D01*
X0031253Y0074603D01*
X0031184Y0074588D01*
X0031116Y0074569D01*
X0031050Y0074546D01*
X0030985Y0074519D01*
X0030921Y0074489D01*
X0030859Y0074456D01*
X0030799Y0074419D01*
X0030741Y0074379D01*
X0030686Y0074336D01*
X0030632Y0074289D01*
X0030582Y0074240D01*
X0030534Y0074188D01*
X0030489Y0074134D01*
X0030448Y0074077D01*
X0030409Y0074018D01*
X0030374Y0073957D01*
X0030342Y0073894D01*
X0030314Y0073830D01*
X0030289Y0073764D01*
X0030268Y0073697D01*
X0030251Y0073628D01*
X0030237Y0073559D01*
X0030228Y0073490D01*
X0030222Y0073419D01*
X0030220Y0073349D01*
X0030220Y0072071D01*
X0034820Y0072071D01*
X0024820Y0076104D02*
X0020220Y0077638D01*
X0021243Y0079313D02*
X0023798Y0079313D01*
X0023798Y0079314D02*
X0023860Y0079316D01*
X0023921Y0079321D01*
X0023982Y0079331D01*
X0024043Y0079344D01*
X0024102Y0079360D01*
X0024160Y0079380D01*
X0024217Y0079404D01*
X0024273Y0079431D01*
X0024327Y0079461D01*
X0024379Y0079495D01*
X0024428Y0079531D01*
X0024476Y0079571D01*
X0024521Y0079613D01*
X0024563Y0079658D01*
X0024603Y0079706D01*
X0024639Y0079755D01*
X0024673Y0079807D01*
X0024703Y0079861D01*
X0024730Y0079917D01*
X0024754Y0079974D01*
X0024774Y0080032D01*
X0024790Y0080091D01*
X0024803Y0080152D01*
X0024813Y0080213D01*
X0024818Y0080274D01*
X0024820Y0080336D01*
X0024820Y0081358D01*
X0023798Y0083063D02*
X0021243Y0083063D01*
X0021243Y0083064D02*
X0021181Y0083066D01*
X0021120Y0083071D01*
X0021059Y0083081D01*
X0020998Y0083094D01*
X0020939Y0083110D01*
X0020881Y0083130D01*
X0020824Y0083154D01*
X0020768Y0083181D01*
X0020714Y0083211D01*
X0020662Y0083245D01*
X0020613Y0083281D01*
X0020565Y0083321D01*
X0020520Y0083363D01*
X0020478Y0083408D01*
X0020439Y0083456D01*
X0020402Y0083505D01*
X0020368Y0083557D01*
X0020338Y0083611D01*
X0020311Y0083667D01*
X0020287Y0083724D01*
X0020267Y0083782D01*
X0020251Y0083841D01*
X0020238Y0083902D01*
X0020228Y0083963D01*
X0020223Y0084024D01*
X0020221Y0084086D01*
X0020220Y0084086D02*
X0020220Y0085108D01*
X0023798Y0083064D02*
X0023860Y0083066D01*
X0023921Y0083071D01*
X0023982Y0083081D01*
X0024043Y0083094D01*
X0024102Y0083110D01*
X0024160Y0083130D01*
X0024217Y0083154D01*
X0024273Y0083181D01*
X0024327Y0083211D01*
X0024379Y0083245D01*
X0024428Y0083281D01*
X0024476Y0083321D01*
X0024521Y0083363D01*
X0024563Y0083408D01*
X0024603Y0083456D01*
X0024639Y0083505D01*
X0024673Y0083557D01*
X0024703Y0083611D01*
X0024730Y0083667D01*
X0024754Y0083724D01*
X0024774Y0083782D01*
X0024790Y0083841D01*
X0024803Y0083902D01*
X0024813Y0083963D01*
X0024818Y0084024D01*
X0024820Y0084086D01*
X0024820Y0085108D01*
X0020220Y0081358D02*
X0020220Y0080336D01*
X0020221Y0080336D02*
X0020223Y0080274D01*
X0020228Y0080213D01*
X0020238Y0080152D01*
X0020251Y0080091D01*
X0020267Y0080032D01*
X0020287Y0079974D01*
X0020311Y0079917D01*
X0020338Y0079861D01*
X0020368Y0079807D01*
X0020402Y0079755D01*
X0020439Y0079706D01*
X0020478Y0079658D01*
X0020520Y0079613D01*
X0020565Y0079571D01*
X0020613Y0079531D01*
X0020662Y0079495D01*
X0020714Y0079461D01*
X0020768Y0079431D01*
X0020824Y0079404D01*
X0020881Y0079380D01*
X0020939Y0079360D01*
X0020998Y0079344D01*
X0021059Y0079331D01*
X0021120Y0079321D01*
X0021181Y0079316D01*
X0021243Y0079314D01*
X0024820Y0076104D02*
X0020220Y0074571D01*
X0040220Y0081304D02*
X0044820Y0081304D01*
X0098587Y0079919D02*
X0098587Y0076597D01*
X0098586Y0076597D02*
X0098588Y0076527D01*
X0098594Y0076456D01*
X0098603Y0076387D01*
X0098617Y0076318D01*
X0098634Y0076249D01*
X0098655Y0076182D01*
X0098680Y0076116D01*
X0098708Y0076052D01*
X0098740Y0075989D01*
X0098775Y0075928D01*
X0098814Y0075869D01*
X0098855Y0075812D01*
X0098900Y0075758D01*
X0098948Y0075706D01*
X0098998Y0075657D01*
X0099052Y0075610D01*
X0099107Y0075567D01*
X0099165Y0075527D01*
X0099225Y0075490D01*
X0099287Y0075457D01*
X0099351Y0075427D01*
X0099416Y0075400D01*
X0099482Y0075377D01*
X0099550Y0075358D01*
X0099619Y0075343D01*
X0099688Y0075331D01*
X0099758Y0075323D01*
X0099829Y0075319D01*
X0099899Y0075319D01*
X0099970Y0075323D01*
X0100040Y0075331D01*
X0100109Y0075343D01*
X0100178Y0075358D01*
X0100246Y0075377D01*
X0100312Y0075400D01*
X0100377Y0075427D01*
X0100441Y0075457D01*
X0100503Y0075490D01*
X0100563Y0075527D01*
X0100621Y0075567D01*
X0100676Y0075610D01*
X0100730Y0075657D01*
X0100780Y0075706D01*
X0100828Y0075758D01*
X0100873Y0075812D01*
X0100914Y0075869D01*
X0100953Y0075928D01*
X0100988Y0075989D01*
X0101020Y0076052D01*
X0101048Y0076116D01*
X0101073Y0076182D01*
X0101094Y0076249D01*
X0101111Y0076318D01*
X0101125Y0076387D01*
X0101134Y0076456D01*
X0101140Y0076527D01*
X0101142Y0076597D01*
X0101142Y0079919D01*
X0104214Y0079919D02*
X0104214Y0075319D01*
X0104598Y0075830D02*
X0104651Y0075842D01*
X0104703Y0075857D01*
X0104754Y0075877D01*
X0104803Y0075899D01*
X0104851Y0075925D01*
X0104897Y0075955D01*
X0104940Y0075987D01*
X0104981Y0076023D01*
X0105020Y0076061D01*
X0105055Y0076102D01*
X0105088Y0076146D01*
X0105117Y0076191D01*
X0105143Y0076239D01*
X0105166Y0076289D01*
X0105185Y0076339D01*
X0105200Y0076391D01*
X0105212Y0076445D01*
X0105219Y0076498D01*
X0105223Y0076552D01*
X0105224Y0076607D01*
X0105220Y0076661D01*
X0105212Y0076715D01*
X0105201Y0076768D01*
X0105186Y0076820D01*
X0105167Y0076871D01*
X0105144Y0076920D01*
X0105119Y0076968D01*
X0105089Y0077014D01*
X0105057Y0077057D01*
X0105022Y0077099D01*
X0104983Y0077137D01*
X0104942Y0077173D01*
X0104899Y0077206D01*
X0104854Y0077235D01*
X0104853Y0077236D02*
X0104214Y0077619D01*
X0103575Y0078002D01*
X0103192Y0076086D02*
X0103267Y0076043D01*
X0103343Y0076004D01*
X0103421Y0075967D01*
X0103500Y0075935D01*
X0103581Y0075905D01*
X0103663Y0075879D01*
X0103746Y0075857D01*
X0103830Y0075838D01*
X0103914Y0075822D01*
X0103999Y0075811D01*
X0104085Y0075803D01*
X0104170Y0075798D01*
X0104256Y0075797D01*
X0104342Y0075800D01*
X0104428Y0075806D01*
X0104513Y0075816D01*
X0104598Y0075830D01*
X0105237Y0079152D02*
X0105162Y0079195D01*
X0105086Y0079234D01*
X0105008Y0079271D01*
X0104929Y0079303D01*
X0104848Y0079333D01*
X0104766Y0079359D01*
X0104683Y0079381D01*
X0104599Y0079400D01*
X0104515Y0079416D01*
X0104430Y0079427D01*
X0104344Y0079435D01*
X0104259Y0079440D01*
X0104173Y0079441D01*
X0104087Y0079438D01*
X0104001Y0079432D01*
X0103916Y0079422D01*
X0103831Y0079408D01*
X0103778Y0079396D01*
X0103726Y0079381D01*
X0103675Y0079361D01*
X0103626Y0079339D01*
X0103578Y0079313D01*
X0103532Y0079283D01*
X0103489Y0079251D01*
X0103448Y0079215D01*
X0103409Y0079177D01*
X0103374Y0079136D01*
X0103341Y0079092D01*
X0103312Y0079047D01*
X0103286Y0078999D01*
X0103263Y0078949D01*
X0103244Y0078899D01*
X0103229Y0078847D01*
X0103217Y0078793D01*
X0103210Y0078740D01*
X0103206Y0078686D01*
X0103205Y0078631D01*
X0103209Y0078577D01*
X0103217Y0078523D01*
X0103228Y0078470D01*
X0103243Y0078418D01*
X0103262Y0078367D01*
X0103285Y0078318D01*
X0103310Y0078270D01*
X0103340Y0078224D01*
X0103372Y0078181D01*
X0103407Y0078139D01*
X0103446Y0078101D01*
X0103487Y0078065D01*
X0103530Y0078032D01*
X0103575Y0078003D01*
X0107137Y0079919D02*
X0108670Y0079919D01*
X0108733Y0079917D01*
X0108796Y0079911D01*
X0108858Y0079902D01*
X0108919Y0079888D01*
X0108980Y0079871D01*
X0109039Y0079850D01*
X0109097Y0079825D01*
X0109154Y0079797D01*
X0109208Y0079766D01*
X0109260Y0079731D01*
X0109311Y0079693D01*
X0109359Y0079652D01*
X0109404Y0079608D01*
X0109446Y0079562D01*
X0109486Y0079513D01*
X0109522Y0079462D01*
X0109555Y0079408D01*
X0109585Y0079353D01*
X0109611Y0079295D01*
X0109634Y0079237D01*
X0109653Y0079177D01*
X0109668Y0079116D01*
X0109680Y0079054D01*
X0109688Y0078991D01*
X0109692Y0078928D01*
X0109692Y0078866D01*
X0109688Y0078803D01*
X0109680Y0078740D01*
X0109668Y0078678D01*
X0109653Y0078617D01*
X0109634Y0078557D01*
X0109611Y0078499D01*
X0109585Y0078441D01*
X0109555Y0078386D01*
X0109522Y0078332D01*
X0109486Y0078281D01*
X0109446Y0078232D01*
X0109404Y0078186D01*
X0109359Y0078142D01*
X0109311Y0078101D01*
X0109260Y0078063D01*
X0109208Y0078028D01*
X0109154Y0077997D01*
X0109097Y0077969D01*
X0109039Y0077944D01*
X0108980Y0077923D01*
X0108919Y0077906D01*
X0108858Y0077892D01*
X0108796Y0077883D01*
X0108733Y0077877D01*
X0108670Y0077875D01*
X0108670Y0077874D02*
X0107648Y0077874D01*
X0108414Y0077875D02*
X0108484Y0077873D01*
X0108555Y0077867D01*
X0108624Y0077858D01*
X0108693Y0077844D01*
X0108762Y0077827D01*
X0108829Y0077806D01*
X0108895Y0077781D01*
X0108959Y0077753D01*
X0109022Y0077721D01*
X0109083Y0077686D01*
X0109142Y0077647D01*
X0109199Y0077606D01*
X0109253Y0077561D01*
X0109305Y0077513D01*
X0109354Y0077463D01*
X0109401Y0077409D01*
X0109444Y0077354D01*
X0109484Y0077296D01*
X0109521Y0077236D01*
X0109554Y0077174D01*
X0109584Y0077110D01*
X0109611Y0077045D01*
X0109634Y0076979D01*
X0109653Y0076911D01*
X0109668Y0076842D01*
X0109680Y0076773D01*
X0109688Y0076703D01*
X0109692Y0076632D01*
X0109692Y0076562D01*
X0109688Y0076491D01*
X0109680Y0076421D01*
X0109668Y0076352D01*
X0109653Y0076283D01*
X0109634Y0076215D01*
X0109611Y0076149D01*
X0109584Y0076084D01*
X0109554Y0076020D01*
X0109521Y0075958D01*
X0109484Y0075898D01*
X0109444Y0075840D01*
X0109401Y0075785D01*
X0109354Y0075731D01*
X0109305Y0075681D01*
X0109253Y0075633D01*
X0109199Y0075588D01*
X0109142Y0075547D01*
X0109083Y0075508D01*
X0109022Y0075473D01*
X0108959Y0075441D01*
X0108895Y0075413D01*
X0108829Y0075388D01*
X0108762Y0075367D01*
X0108693Y0075350D01*
X0108624Y0075336D01*
X0108555Y0075327D01*
X0108484Y0075321D01*
X0108414Y0075319D01*
X0107137Y0075319D01*
X0023798Y0124515D02*
X0021243Y0124515D01*
X0021243Y0124516D02*
X0021181Y0124518D01*
X0021120Y0124523D01*
X0021059Y0124533D01*
X0020998Y0124546D01*
X0020939Y0124562D01*
X0020881Y0124582D01*
X0020824Y0124606D01*
X0020768Y0124633D01*
X0020714Y0124663D01*
X0020662Y0124697D01*
X0020613Y0124733D01*
X0020565Y0124773D01*
X0020520Y0124815D01*
X0020478Y0124860D01*
X0020439Y0124908D01*
X0020402Y0124957D01*
X0020368Y0125009D01*
X0020338Y0125063D01*
X0020311Y0125119D01*
X0020287Y0125176D01*
X0020267Y0125234D01*
X0020251Y0125293D01*
X0020238Y0125354D01*
X0020228Y0125415D01*
X0020223Y0125476D01*
X0020221Y0125538D01*
X0020220Y0125538D02*
X0020220Y0127071D01*
X0022265Y0127071D02*
X0024820Y0127071D01*
X0024820Y0125538D01*
X0024818Y0125476D01*
X0024813Y0125415D01*
X0024803Y0125354D01*
X0024790Y0125293D01*
X0024774Y0125234D01*
X0024754Y0125176D01*
X0024730Y0125119D01*
X0024703Y0125063D01*
X0024673Y0125009D01*
X0024639Y0124957D01*
X0024603Y0124908D01*
X0024563Y0124860D01*
X0024521Y0124815D01*
X0024476Y0124773D01*
X0024428Y0124733D01*
X0024379Y0124697D01*
X0024327Y0124663D01*
X0024273Y0124633D01*
X0024217Y0124606D01*
X0024160Y0124582D01*
X0024102Y0124562D01*
X0024043Y0124546D01*
X0023982Y0124533D01*
X0023921Y0124523D01*
X0023860Y0124518D01*
X0023798Y0124516D01*
X0022265Y0126304D02*
X0022265Y0127071D01*
X0020220Y0129315D02*
X0024820Y0131871D01*
X0020220Y0131871D01*
X0020220Y0134115D02*
X0020220Y0135393D01*
X0020220Y0134115D02*
X0024820Y0134115D01*
X0024820Y0135393D01*
X0024821Y0135393D02*
X0024819Y0135462D01*
X0024814Y0135531D01*
X0024804Y0135600D01*
X0024791Y0135668D01*
X0024774Y0135735D01*
X0024754Y0135801D01*
X0024730Y0135866D01*
X0024703Y0135930D01*
X0024672Y0135992D01*
X0024638Y0136052D01*
X0024601Y0136110D01*
X0024560Y0136166D01*
X0024517Y0136220D01*
X0024471Y0136272D01*
X0024422Y0136321D01*
X0024370Y0136367D01*
X0024316Y0136410D01*
X0024260Y0136451D01*
X0024202Y0136488D01*
X0024142Y0136522D01*
X0024080Y0136553D01*
X0024016Y0136580D01*
X0023951Y0136604D01*
X0023885Y0136624D01*
X0023818Y0136641D01*
X0023750Y0136654D01*
X0023681Y0136664D01*
X0023612Y0136669D01*
X0023543Y0136671D01*
X0021498Y0136671D01*
X0021429Y0136669D01*
X0021360Y0136664D01*
X0021291Y0136654D01*
X0021223Y0136641D01*
X0021156Y0136624D01*
X0021090Y0136604D01*
X0021025Y0136580D01*
X0020961Y0136553D01*
X0020899Y0136522D01*
X0020839Y0136488D01*
X0020781Y0136451D01*
X0020725Y0136410D01*
X0020671Y0136367D01*
X0020619Y0136321D01*
X0020570Y0136272D01*
X0020524Y0136220D01*
X0020481Y0136166D01*
X0020440Y0136110D01*
X0020403Y0136052D01*
X0020369Y0135992D01*
X0020338Y0135930D01*
X0020311Y0135866D01*
X0020287Y0135801D01*
X0020267Y0135735D01*
X0020250Y0135668D01*
X0020237Y0135600D01*
X0020227Y0135531D01*
X0020222Y0135462D01*
X0020220Y0135393D01*
X0030220Y0136671D02*
X0034820Y0133604D01*
X0034820Y0130938D02*
X0030220Y0130938D01*
X0030220Y0132215D02*
X0030220Y0129660D01*
X0024820Y0129315D02*
X0020220Y0129315D01*
X0030220Y0133604D02*
X0034820Y0136671D01*
X0040220Y0136671D02*
X0044820Y0133604D01*
X0044820Y0131944D02*
X0042776Y0130922D01*
X0042776Y0130667D02*
X0042776Y0129389D01*
X0042776Y0130667D02*
X0042774Y0130737D01*
X0042768Y0130808D01*
X0042759Y0130877D01*
X0042745Y0130946D01*
X0042728Y0131015D01*
X0042707Y0131082D01*
X0042682Y0131148D01*
X0042654Y0131212D01*
X0042622Y0131275D01*
X0042587Y0131336D01*
X0042548Y0131395D01*
X0042507Y0131452D01*
X0042462Y0131506D01*
X0042414Y0131558D01*
X0042364Y0131607D01*
X0042310Y0131654D01*
X0042255Y0131697D01*
X0042197Y0131737D01*
X0042137Y0131774D01*
X0042075Y0131807D01*
X0042011Y0131837D01*
X0041946Y0131864D01*
X0041880Y0131887D01*
X0041812Y0131906D01*
X0041743Y0131921D01*
X0041674Y0131933D01*
X0041604Y0131941D01*
X0041533Y0131945D01*
X0041463Y0131945D01*
X0041392Y0131941D01*
X0041322Y0131933D01*
X0041253Y0131921D01*
X0041184Y0131906D01*
X0041116Y0131887D01*
X0041050Y0131864D01*
X0040985Y0131837D01*
X0040921Y0131807D01*
X0040859Y0131774D01*
X0040799Y0131737D01*
X0040741Y0131697D01*
X0040686Y0131654D01*
X0040632Y0131607D01*
X0040582Y0131558D01*
X0040534Y0131506D01*
X0040489Y0131452D01*
X0040448Y0131395D01*
X0040409Y0131336D01*
X0040374Y0131275D01*
X0040342Y0131212D01*
X0040314Y0131148D01*
X0040289Y0131082D01*
X0040268Y0131015D01*
X0040251Y0130946D01*
X0040237Y0130877D01*
X0040228Y0130808D01*
X0040222Y0130737D01*
X0040220Y0130667D01*
X0040220Y0129389D01*
X0044820Y0129389D01*
X0050220Y0130621D02*
X0053543Y0130621D01*
X0053613Y0130619D01*
X0053684Y0130613D01*
X0053753Y0130604D01*
X0053822Y0130590D01*
X0053891Y0130573D01*
X0053958Y0130552D01*
X0054024Y0130527D01*
X0054088Y0130499D01*
X0054151Y0130467D01*
X0054212Y0130432D01*
X0054271Y0130393D01*
X0054328Y0130352D01*
X0054382Y0130307D01*
X0054434Y0130259D01*
X0054483Y0130209D01*
X0054530Y0130155D01*
X0054573Y0130100D01*
X0054613Y0130042D01*
X0054650Y0129982D01*
X0054683Y0129920D01*
X0054713Y0129856D01*
X0054740Y0129791D01*
X0054763Y0129725D01*
X0054782Y0129657D01*
X0054797Y0129588D01*
X0054809Y0129519D01*
X0054817Y0129449D01*
X0054821Y0129378D01*
X0054821Y0129308D01*
X0054817Y0129237D01*
X0054809Y0129167D01*
X0054797Y0129098D01*
X0054782Y0129029D01*
X0054763Y0128961D01*
X0054740Y0128895D01*
X0054713Y0128830D01*
X0054683Y0128766D01*
X0054650Y0128704D01*
X0054613Y0128644D01*
X0054573Y0128586D01*
X0054530Y0128531D01*
X0054483Y0128477D01*
X0054434Y0128427D01*
X0054382Y0128379D01*
X0054328Y0128334D01*
X0054271Y0128293D01*
X0054212Y0128254D01*
X0054151Y0128219D01*
X0054088Y0128187D01*
X0054024Y0128159D01*
X0053958Y0128134D01*
X0053891Y0128113D01*
X0053822Y0128096D01*
X0053753Y0128082D01*
X0053684Y0128073D01*
X0053613Y0128067D01*
X0053543Y0128065D01*
X0050220Y0128065D01*
X0052137Y0133054D02*
X0052520Y0133693D01*
X0052904Y0134332D01*
X0050987Y0134716D02*
X0050944Y0134641D01*
X0050905Y0134565D01*
X0050868Y0134487D01*
X0050836Y0134408D01*
X0050806Y0134327D01*
X0050780Y0134245D01*
X0050758Y0134162D01*
X0050739Y0134078D01*
X0050723Y0133994D01*
X0050712Y0133909D01*
X0050704Y0133823D01*
X0050699Y0133738D01*
X0050698Y0133652D01*
X0050701Y0133566D01*
X0050707Y0133480D01*
X0050717Y0133395D01*
X0050731Y0133310D01*
X0050220Y0133693D02*
X0054820Y0133693D01*
X0054309Y0134076D02*
X0054297Y0134129D01*
X0054282Y0134181D01*
X0054262Y0134232D01*
X0054240Y0134281D01*
X0054214Y0134329D01*
X0054184Y0134375D01*
X0054152Y0134418D01*
X0054116Y0134459D01*
X0054078Y0134498D01*
X0054037Y0134533D01*
X0053993Y0134566D01*
X0053948Y0134595D01*
X0053900Y0134621D01*
X0053851Y0134644D01*
X0053800Y0134663D01*
X0053748Y0134678D01*
X0053694Y0134690D01*
X0053641Y0134697D01*
X0053587Y0134701D01*
X0053532Y0134702D01*
X0053478Y0134698D01*
X0053424Y0134690D01*
X0053371Y0134679D01*
X0053319Y0134664D01*
X0053268Y0134645D01*
X0053219Y0134622D01*
X0053171Y0134597D01*
X0053125Y0134567D01*
X0053082Y0134535D01*
X0053040Y0134500D01*
X0053002Y0134461D01*
X0052966Y0134420D01*
X0052933Y0134377D01*
X0052904Y0134332D01*
X0054310Y0134077D02*
X0054324Y0133992D01*
X0054334Y0133907D01*
X0054340Y0133821D01*
X0054343Y0133735D01*
X0054342Y0133649D01*
X0054337Y0133564D01*
X0054329Y0133478D01*
X0054318Y0133393D01*
X0054302Y0133309D01*
X0054283Y0133225D01*
X0054261Y0133142D01*
X0054235Y0133060D01*
X0054205Y0132979D01*
X0054173Y0132900D01*
X0054136Y0132822D01*
X0054097Y0132746D01*
X0054054Y0132671D01*
X0052137Y0133054D02*
X0052108Y0133009D01*
X0052075Y0132966D01*
X0052039Y0132925D01*
X0052001Y0132886D01*
X0051959Y0132851D01*
X0051916Y0132819D01*
X0051870Y0132789D01*
X0051822Y0132764D01*
X0051773Y0132741D01*
X0051722Y0132722D01*
X0051670Y0132707D01*
X0051617Y0132696D01*
X0051563Y0132688D01*
X0051509Y0132684D01*
X0051454Y0132685D01*
X0051400Y0132688D01*
X0051347Y0132696D01*
X0051293Y0132708D01*
X0051241Y0132723D01*
X0051191Y0132742D01*
X0051141Y0132765D01*
X0051093Y0132791D01*
X0051048Y0132820D01*
X0051004Y0132853D01*
X0050963Y0132888D01*
X0050925Y0132927D01*
X0050889Y0132968D01*
X0050857Y0133011D01*
X0050827Y0133057D01*
X0050801Y0133105D01*
X0050779Y0133154D01*
X0050759Y0133205D01*
X0050744Y0133257D01*
X0050732Y0133310D01*
X0054820Y0136615D02*
X0054820Y0139171D01*
X0054820Y0136615D02*
X0052265Y0138788D01*
X0050221Y0138021D02*
X0050223Y0137947D01*
X0050228Y0137873D01*
X0050238Y0137799D01*
X0050251Y0137726D01*
X0050267Y0137653D01*
X0050288Y0137582D01*
X0050312Y0137512D01*
X0050339Y0137443D01*
X0050370Y0137375D01*
X0050404Y0137309D01*
X0050441Y0137245D01*
X0050482Y0137183D01*
X0050526Y0137122D01*
X0050572Y0137065D01*
X0050622Y0137009D01*
X0050674Y0136956D01*
X0050729Y0136906D01*
X0050786Y0136859D01*
X0050846Y0136815D01*
X0050908Y0136773D01*
X0050971Y0136735D01*
X0051037Y0136700D01*
X0051104Y0136669D01*
X0051173Y0136641D01*
X0051243Y0136616D01*
X0052264Y0138788D02*
X0052217Y0138835D01*
X0052167Y0138879D01*
X0052115Y0138921D01*
X0052061Y0138960D01*
X0052005Y0138995D01*
X0051947Y0139028D01*
X0051887Y0139058D01*
X0051826Y0139084D01*
X0051763Y0139107D01*
X0051699Y0139126D01*
X0051635Y0139142D01*
X0051569Y0139155D01*
X0051503Y0139164D01*
X0051437Y0139169D01*
X0051370Y0139171D01*
X0051303Y0139169D01*
X0051236Y0139163D01*
X0051170Y0139154D01*
X0051105Y0139140D01*
X0051040Y0139123D01*
X0050977Y0139102D01*
X0050915Y0139077D01*
X0050854Y0139049D01*
X0050795Y0139017D01*
X0050738Y0138982D01*
X0050683Y0138943D01*
X0050631Y0138902D01*
X0050581Y0138857D01*
X0050534Y0138810D01*
X0050489Y0138760D01*
X0050448Y0138708D01*
X0050409Y0138653D01*
X0050374Y0138596D01*
X0050342Y0138537D01*
X0050314Y0138476D01*
X0050289Y0138414D01*
X0050268Y0138351D01*
X0050251Y0138286D01*
X0050237Y0138221D01*
X0050228Y0138155D01*
X0050222Y0138088D01*
X0050220Y0138021D01*
X0044820Y0136671D02*
X0040220Y0133604D01*
X0358783Y0168723D02*
X0358783Y0172045D01*
X0361339Y0172045D02*
X0361339Y0168723D01*
X0361337Y0168653D01*
X0361331Y0168582D01*
X0361322Y0168513D01*
X0361308Y0168444D01*
X0361291Y0168375D01*
X0361270Y0168308D01*
X0361245Y0168242D01*
X0361217Y0168178D01*
X0361185Y0168115D01*
X0361150Y0168054D01*
X0361111Y0167995D01*
X0361070Y0167938D01*
X0361025Y0167884D01*
X0360977Y0167832D01*
X0360927Y0167783D01*
X0360873Y0167736D01*
X0360818Y0167693D01*
X0360760Y0167653D01*
X0360700Y0167616D01*
X0360638Y0167583D01*
X0360574Y0167553D01*
X0360509Y0167526D01*
X0360443Y0167503D01*
X0360375Y0167484D01*
X0360306Y0167469D01*
X0360237Y0167457D01*
X0360167Y0167449D01*
X0360096Y0167445D01*
X0360026Y0167445D01*
X0359955Y0167449D01*
X0359885Y0167457D01*
X0359816Y0167469D01*
X0359747Y0167484D01*
X0359679Y0167503D01*
X0359613Y0167526D01*
X0359548Y0167553D01*
X0359484Y0167583D01*
X0359422Y0167616D01*
X0359362Y0167653D01*
X0359304Y0167693D01*
X0359249Y0167736D01*
X0359195Y0167783D01*
X0359145Y0167832D01*
X0359097Y0167884D01*
X0359052Y0167938D01*
X0359011Y0167995D01*
X0358972Y0168054D01*
X0358937Y0168115D01*
X0358905Y0168178D01*
X0358877Y0168242D01*
X0358852Y0168308D01*
X0358831Y0168375D01*
X0358814Y0168444D01*
X0358800Y0168513D01*
X0358791Y0168582D01*
X0358785Y0168653D01*
X0358783Y0168723D01*
X0363772Y0170128D02*
X0364411Y0169745D01*
X0365050Y0169362D01*
X0365434Y0171278D02*
X0365359Y0171321D01*
X0365283Y0171360D01*
X0365205Y0171397D01*
X0365126Y0171429D01*
X0365045Y0171459D01*
X0364963Y0171485D01*
X0364880Y0171507D01*
X0364796Y0171526D01*
X0364712Y0171542D01*
X0364627Y0171553D01*
X0364541Y0171561D01*
X0364456Y0171566D01*
X0364370Y0171567D01*
X0364284Y0171564D01*
X0364198Y0171558D01*
X0364113Y0171548D01*
X0364028Y0171534D01*
X0364411Y0172045D02*
X0364411Y0167445D01*
X0364794Y0167956D02*
X0364847Y0167968D01*
X0364899Y0167983D01*
X0364950Y0168003D01*
X0364999Y0168025D01*
X0365047Y0168051D01*
X0365093Y0168081D01*
X0365136Y0168113D01*
X0365177Y0168149D01*
X0365216Y0168187D01*
X0365251Y0168228D01*
X0365284Y0168272D01*
X0365313Y0168317D01*
X0365339Y0168365D01*
X0365362Y0168415D01*
X0365381Y0168465D01*
X0365396Y0168517D01*
X0365408Y0168571D01*
X0365415Y0168624D01*
X0365419Y0168678D01*
X0365420Y0168733D01*
X0365416Y0168787D01*
X0365408Y0168841D01*
X0365397Y0168894D01*
X0365382Y0168946D01*
X0365363Y0168997D01*
X0365340Y0169046D01*
X0365315Y0169094D01*
X0365285Y0169140D01*
X0365253Y0169183D01*
X0365218Y0169225D01*
X0365179Y0169263D01*
X0365138Y0169299D01*
X0365095Y0169332D01*
X0365050Y0169361D01*
X0364795Y0167956D02*
X0364710Y0167942D01*
X0364625Y0167932D01*
X0364539Y0167926D01*
X0364453Y0167923D01*
X0364367Y0167924D01*
X0364282Y0167929D01*
X0364196Y0167937D01*
X0364111Y0167948D01*
X0364027Y0167964D01*
X0363943Y0167983D01*
X0363860Y0168005D01*
X0363778Y0168031D01*
X0363697Y0168061D01*
X0363618Y0168093D01*
X0363540Y0168130D01*
X0363464Y0168169D01*
X0363389Y0168212D01*
X0363772Y0170129D02*
X0363727Y0170158D01*
X0363684Y0170191D01*
X0363643Y0170227D01*
X0363604Y0170265D01*
X0363569Y0170307D01*
X0363537Y0170350D01*
X0363507Y0170396D01*
X0363482Y0170444D01*
X0363459Y0170493D01*
X0363440Y0170544D01*
X0363425Y0170596D01*
X0363414Y0170649D01*
X0363406Y0170703D01*
X0363402Y0170757D01*
X0363403Y0170812D01*
X0363407Y0170866D01*
X0363414Y0170919D01*
X0363426Y0170973D01*
X0363441Y0171025D01*
X0363460Y0171075D01*
X0363483Y0171125D01*
X0363509Y0171173D01*
X0363538Y0171218D01*
X0363571Y0171262D01*
X0363606Y0171303D01*
X0363645Y0171341D01*
X0363686Y0171377D01*
X0363729Y0171409D01*
X0363775Y0171439D01*
X0363823Y0171465D01*
X0363872Y0171487D01*
X0363923Y0171507D01*
X0363975Y0171522D01*
X0364028Y0171534D01*
X0367333Y0171023D02*
X0368611Y0172045D01*
X0368611Y0167445D01*
X0367333Y0167445D02*
X0369889Y0167445D01*
X0388642Y0159702D02*
X0388897Y0159702D01*
X0388897Y0159447D01*
X0388642Y0159447D01*
X0388642Y0159702D01*
X0388770Y0158169D02*
X0388770Y0155102D01*
X0390747Y0155102D02*
X0390747Y0158169D01*
X0392025Y0158169D01*
X0392080Y0158167D01*
X0392134Y0158161D01*
X0392188Y0158151D01*
X0392241Y0158138D01*
X0392293Y0158121D01*
X0392344Y0158100D01*
X0392393Y0158075D01*
X0392440Y0158047D01*
X0392485Y0158016D01*
X0392527Y0157982D01*
X0392567Y0157944D01*
X0392605Y0157904D01*
X0392639Y0157862D01*
X0392670Y0157817D01*
X0392698Y0157770D01*
X0392723Y0157721D01*
X0392744Y0157670D01*
X0392761Y0157618D01*
X0392774Y0157565D01*
X0392784Y0157511D01*
X0392790Y0157457D01*
X0392792Y0157402D01*
X0392792Y0155102D01*
X0394586Y0155102D02*
X0396120Y0159702D01*
X0397653Y0155102D01*
X0397270Y0156252D02*
X0394970Y0156252D01*
X0399208Y0155102D02*
X0400231Y0155102D01*
X0399720Y0155102D02*
X0399720Y0159702D01*
X0400231Y0159702D02*
X0399208Y0159702D01*
X0402221Y0159702D02*
X0403498Y0159702D01*
X0402221Y0159702D02*
X0402221Y0155102D01*
X0402221Y0157147D02*
X0403498Y0157147D01*
X0403754Y0157147D02*
X0404776Y0155102D01*
X0403498Y0157147D02*
X0403568Y0157149D01*
X0403639Y0157155D01*
X0403708Y0157164D01*
X0403777Y0157178D01*
X0403846Y0157195D01*
X0403913Y0157216D01*
X0403979Y0157241D01*
X0404043Y0157269D01*
X0404106Y0157301D01*
X0404167Y0157336D01*
X0404226Y0157375D01*
X0404283Y0157416D01*
X0404337Y0157461D01*
X0404389Y0157509D01*
X0404438Y0157559D01*
X0404485Y0157613D01*
X0404528Y0157668D01*
X0404568Y0157726D01*
X0404605Y0157786D01*
X0404638Y0157848D01*
X0404668Y0157912D01*
X0404695Y0157977D01*
X0404718Y0158043D01*
X0404737Y0158111D01*
X0404752Y0158180D01*
X0404764Y0158249D01*
X0404772Y0158319D01*
X0404776Y0158390D01*
X0404776Y0158460D01*
X0404772Y0158531D01*
X0404764Y0158601D01*
X0404752Y0158670D01*
X0404737Y0158739D01*
X0404718Y0158807D01*
X0404695Y0158873D01*
X0404668Y0158938D01*
X0404638Y0159002D01*
X0404605Y0159064D01*
X0404568Y0159124D01*
X0404528Y0159182D01*
X0404485Y0159237D01*
X0404438Y0159291D01*
X0404389Y0159341D01*
X0404337Y0159389D01*
X0404283Y0159434D01*
X0404226Y0159475D01*
X0404167Y0159514D01*
X0404106Y0159549D01*
X0404043Y0159581D01*
X0403979Y0159609D01*
X0403913Y0159634D01*
X0403846Y0159655D01*
X0403777Y0159672D01*
X0403708Y0159686D01*
X0403639Y0159695D01*
X0403568Y0159701D01*
X0403498Y0159703D01*
X0384261Y0067045D02*
X0382983Y0067045D01*
X0382983Y0062445D01*
X0384261Y0062445D01*
X0384331Y0062447D01*
X0384402Y0062453D01*
X0384471Y0062462D01*
X0384540Y0062476D01*
X0384609Y0062493D01*
X0384676Y0062514D01*
X0384742Y0062539D01*
X0384806Y0062567D01*
X0384869Y0062599D01*
X0384930Y0062634D01*
X0384989Y0062673D01*
X0385046Y0062714D01*
X0385100Y0062759D01*
X0385152Y0062807D01*
X0385201Y0062857D01*
X0385248Y0062911D01*
X0385291Y0062966D01*
X0385331Y0063024D01*
X0385368Y0063084D01*
X0385401Y0063146D01*
X0385431Y0063210D01*
X0385458Y0063275D01*
X0385481Y0063341D01*
X0385500Y0063409D01*
X0385515Y0063478D01*
X0385527Y0063547D01*
X0385535Y0063617D01*
X0385539Y0063688D01*
X0385539Y0063758D01*
X0385535Y0063829D01*
X0385527Y0063899D01*
X0385515Y0063968D01*
X0385500Y0064037D01*
X0385481Y0064105D01*
X0385458Y0064171D01*
X0385431Y0064236D01*
X0385401Y0064300D01*
X0385368Y0064362D01*
X0385331Y0064422D01*
X0385291Y0064480D01*
X0385248Y0064535D01*
X0385201Y0064589D01*
X0385152Y0064639D01*
X0385100Y0064687D01*
X0385046Y0064732D01*
X0384989Y0064773D01*
X0384930Y0064812D01*
X0384869Y0064847D01*
X0384806Y0064879D01*
X0384742Y0064907D01*
X0384676Y0064932D01*
X0384609Y0064953D01*
X0384540Y0064970D01*
X0384471Y0064984D01*
X0384402Y0064993D01*
X0384331Y0064999D01*
X0384261Y0065001D01*
X0384261Y0065000D02*
X0382983Y0065000D01*
X0384261Y0065001D02*
X0384324Y0065003D01*
X0384387Y0065009D01*
X0384449Y0065018D01*
X0384510Y0065032D01*
X0384571Y0065049D01*
X0384630Y0065070D01*
X0384688Y0065095D01*
X0384745Y0065123D01*
X0384799Y0065154D01*
X0384851Y0065189D01*
X0384902Y0065227D01*
X0384950Y0065268D01*
X0384995Y0065312D01*
X0385037Y0065358D01*
X0385077Y0065407D01*
X0385113Y0065458D01*
X0385146Y0065512D01*
X0385176Y0065567D01*
X0385202Y0065625D01*
X0385225Y0065683D01*
X0385244Y0065743D01*
X0385259Y0065804D01*
X0385271Y0065866D01*
X0385279Y0065929D01*
X0385283Y0065992D01*
X0385283Y0066054D01*
X0385279Y0066117D01*
X0385271Y0066180D01*
X0385259Y0066242D01*
X0385244Y0066303D01*
X0385225Y0066363D01*
X0385202Y0066421D01*
X0385176Y0066479D01*
X0385146Y0066534D01*
X0385113Y0066588D01*
X0385077Y0066639D01*
X0385037Y0066688D01*
X0384995Y0066734D01*
X0384950Y0066778D01*
X0384902Y0066819D01*
X0384851Y0066857D01*
X0384799Y0066892D01*
X0384745Y0066923D01*
X0384688Y0066951D01*
X0384630Y0066976D01*
X0384571Y0066997D01*
X0384510Y0067014D01*
X0384449Y0067028D01*
X0384387Y0067037D01*
X0384324Y0067043D01*
X0384261Y0067045D01*
X0380822Y0065767D02*
X0380822Y0064489D01*
X0379289Y0064489D01*
X0380822Y0064489D02*
X0380820Y0064400D01*
X0380814Y0064311D01*
X0380805Y0064222D01*
X0380791Y0064134D01*
X0380774Y0064047D01*
X0380752Y0063960D01*
X0380727Y0063874D01*
X0380699Y0063790D01*
X0380666Y0063707D01*
X0380630Y0063625D01*
X0380591Y0063545D01*
X0380548Y0063467D01*
X0380502Y0063391D01*
X0380452Y0063317D01*
X0380400Y0063245D01*
X0380344Y0063175D01*
X0380285Y0063108D01*
X0380223Y0063044D01*
X0380159Y0062982D01*
X0380092Y0062923D01*
X0380022Y0062867D01*
X0379950Y0062815D01*
X0379876Y0062765D01*
X0379800Y0062719D01*
X0379722Y0062676D01*
X0379642Y0062637D01*
X0379560Y0062601D01*
X0379477Y0062568D01*
X0379393Y0062540D01*
X0379307Y0062515D01*
X0379220Y0062493D01*
X0379133Y0062476D01*
X0379045Y0062462D01*
X0378956Y0062453D01*
X0378867Y0062447D01*
X0378778Y0062445D01*
X0376351Y0062445D02*
X0375329Y0064489D01*
X0375074Y0064489D02*
X0373796Y0064489D01*
X0375074Y0064489D02*
X0375144Y0064491D01*
X0375215Y0064497D01*
X0375284Y0064506D01*
X0375353Y0064520D01*
X0375422Y0064537D01*
X0375489Y0064558D01*
X0375555Y0064583D01*
X0375619Y0064611D01*
X0375682Y0064643D01*
X0375743Y0064678D01*
X0375802Y0064717D01*
X0375859Y0064758D01*
X0375913Y0064803D01*
X0375965Y0064851D01*
X0376014Y0064901D01*
X0376061Y0064955D01*
X0376104Y0065010D01*
X0376144Y0065068D01*
X0376181Y0065128D01*
X0376214Y0065190D01*
X0376244Y0065254D01*
X0376271Y0065319D01*
X0376294Y0065385D01*
X0376313Y0065453D01*
X0376328Y0065522D01*
X0376340Y0065591D01*
X0376348Y0065661D01*
X0376352Y0065732D01*
X0376352Y0065802D01*
X0376348Y0065873D01*
X0376340Y0065943D01*
X0376328Y0066012D01*
X0376313Y0066081D01*
X0376294Y0066149D01*
X0376271Y0066215D01*
X0376244Y0066280D01*
X0376214Y0066344D01*
X0376181Y0066406D01*
X0376144Y0066466D01*
X0376104Y0066524D01*
X0376061Y0066579D01*
X0376014Y0066633D01*
X0375965Y0066683D01*
X0375913Y0066731D01*
X0375859Y0066776D01*
X0375802Y0066817D01*
X0375743Y0066856D01*
X0375682Y0066891D01*
X0375619Y0066923D01*
X0375555Y0066951D01*
X0375489Y0066976D01*
X0375422Y0066997D01*
X0375353Y0067014D01*
X0375284Y0067028D01*
X0375215Y0067037D01*
X0375144Y0067043D01*
X0375074Y0067045D01*
X0373796Y0067045D01*
X0373796Y0062445D01*
X0371806Y0062445D02*
X0370783Y0062445D01*
X0371295Y0062445D02*
X0371295Y0067045D01*
X0371806Y0067045D02*
X0370783Y0067045D01*
X0367695Y0067045D02*
X0369228Y0062445D01*
X0368845Y0063595D02*
X0366545Y0063595D01*
X0366161Y0062445D02*
X0367695Y0067045D01*
X0364322Y0067045D02*
X0364322Y0062445D01*
X0361767Y0067045D01*
X0361767Y0062445D01*
X0359806Y0062445D02*
X0358783Y0062445D01*
X0359295Y0062445D02*
X0359295Y0067045D01*
X0359806Y0067045D02*
X0358783Y0067045D01*
X0378267Y0065767D02*
X0378267Y0065512D01*
X0378269Y0065450D01*
X0378274Y0065389D01*
X0378284Y0065328D01*
X0378297Y0065267D01*
X0378313Y0065208D01*
X0378333Y0065150D01*
X0378357Y0065093D01*
X0378384Y0065037D01*
X0378414Y0064983D01*
X0378448Y0064931D01*
X0378484Y0064882D01*
X0378524Y0064834D01*
X0378566Y0064789D01*
X0378611Y0064747D01*
X0378659Y0064707D01*
X0378708Y0064671D01*
X0378760Y0064637D01*
X0378814Y0064607D01*
X0378870Y0064580D01*
X0378927Y0064556D01*
X0378985Y0064536D01*
X0379044Y0064520D01*
X0379105Y0064507D01*
X0379166Y0064497D01*
X0379227Y0064492D01*
X0379289Y0064490D01*
X0378267Y0065767D02*
X0378269Y0065837D01*
X0378275Y0065908D01*
X0378284Y0065977D01*
X0378298Y0066046D01*
X0378315Y0066115D01*
X0378336Y0066182D01*
X0378361Y0066248D01*
X0378389Y0066312D01*
X0378421Y0066375D01*
X0378456Y0066436D01*
X0378495Y0066495D01*
X0378536Y0066552D01*
X0378581Y0066606D01*
X0378629Y0066658D01*
X0378679Y0066707D01*
X0378733Y0066754D01*
X0378788Y0066797D01*
X0378846Y0066837D01*
X0378906Y0066874D01*
X0378968Y0066907D01*
X0379032Y0066937D01*
X0379097Y0066964D01*
X0379163Y0066987D01*
X0379231Y0067006D01*
X0379300Y0067021D01*
X0379369Y0067033D01*
X0379439Y0067041D01*
X0379510Y0067045D01*
X0379580Y0067045D01*
X0379651Y0067041D01*
X0379721Y0067033D01*
X0379790Y0067021D01*
X0379859Y0067006D01*
X0379927Y0066987D01*
X0379993Y0066964D01*
X0380058Y0066937D01*
X0380122Y0066907D01*
X0380184Y0066874D01*
X0380244Y0066837D01*
X0380302Y0066797D01*
X0380357Y0066754D01*
X0380411Y0066707D01*
X0380461Y0066658D01*
X0380509Y0066606D01*
X0380554Y0066552D01*
X0380595Y0066495D01*
X0380634Y0066436D01*
X0380669Y0066375D01*
X0380701Y0066312D01*
X0380729Y0066248D01*
X0380754Y0066182D01*
X0380775Y0066115D01*
X0380792Y0066046D01*
X0380806Y0065977D01*
X0380815Y0065908D01*
X0380821Y0065837D01*
X0380823Y0065767D01*
D13*
X0057520Y0064371D02*
X0057520Y0144371D01*
X0007520Y0144371D01*
X0007520Y0064371D01*
X0057520Y0064371D01*
D14*
X0120423Y0125966D02*
X0106281Y0140108D01*
X0108402Y0142229D01*
X0107695Y0142936D01*
X0108402Y0142229D02*
X0110523Y0144351D01*
X0124666Y0130209D01*
X0122544Y0128087D01*
X0123251Y0127380D01*
X0122544Y0128087D02*
X0120423Y0125966D01*
X0271635Y0173516D02*
X0273756Y0171394D01*
X0273049Y0170687D01*
X0273756Y0171394D02*
X0275878Y0169273D01*
X0290020Y0183415D01*
X0287899Y0185536D01*
X0288606Y0186244D01*
X0287899Y0185536D02*
X0285777Y0187658D01*
X0271635Y0173516D01*
M02*
