G75*
%MOIN*%
%OFA0B0*%
%FSLAX25Y25*%
%IPPOS*%
%LPD*%
%AMOC8*
5,1,8,0,0,1.08239X$1,22.5*
%
%ADD10C,0.06600*%
%ADD11C,0.06000*%
%ADD12R,0.05150X0.05150*%
%ADD13OC8,0.05150*%
%ADD14C,0.05150*%
%ADD15C,0.05150*%
%ADD16C,0.07400*%
%ADD17C,0.06693*%
%ADD18C,0.04000*%
%ADD19C,0.00600*%
%ADD20C,0.02000*%
%ADD21C,0.05000*%
D10*
X0035394Y0014725D03*
X0035394Y0024725D03*
X0035394Y0034725D03*
X0263308Y0076064D03*
X0273308Y0076064D03*
X0283308Y0076064D03*
D11*
X0325583Y0074995D02*
X0331583Y0074995D01*
X0331583Y0084995D02*
X0325583Y0084995D01*
X0325583Y0094995D02*
X0331583Y0094995D01*
X0331583Y0104995D02*
X0325583Y0104995D01*
X0325583Y0114995D02*
X0331583Y0114995D01*
X0331583Y0124995D02*
X0325583Y0124995D01*
X0325583Y0134995D02*
X0331583Y0134995D01*
X0415583Y0134995D02*
X0421583Y0134995D01*
X0421583Y0124995D02*
X0415583Y0124995D01*
X0415583Y0114995D02*
X0421583Y0114995D01*
X0421583Y0104995D02*
X0415583Y0104995D01*
X0415583Y0094995D02*
X0421583Y0094995D01*
X0421583Y0084995D02*
X0415583Y0084995D01*
X0415583Y0074995D02*
X0421583Y0074995D01*
D12*
X0022520Y0139371D03*
D13*
X0032520Y0139371D03*
X0042520Y0139371D03*
D14*
X0042520Y0069371D03*
X0032520Y0069371D03*
D15*
X0022520Y0071946D02*
X0022520Y0066796D01*
D16*
X0083387Y0070119D03*
X0083387Y0080119D03*
X0083387Y0090119D03*
X0083387Y0100119D03*
X0083387Y0110119D03*
X0083387Y0120119D03*
X0083387Y0130119D03*
X0083387Y0140119D03*
X0083387Y0150119D03*
X0083387Y0160119D03*
X0083387Y0170119D03*
X0083387Y0180119D03*
X0104867Y0145765D03*
X0126080Y0124552D03*
X0143387Y0120119D03*
X0143387Y0130119D03*
X0143387Y0140119D03*
X0143387Y0150119D03*
X0143387Y0160119D03*
X0143387Y0170119D03*
X0143387Y0180119D03*
X0166654Y0194213D03*
X0176654Y0194213D03*
X0176654Y0206024D03*
X0166654Y0206024D03*
X0190276Y0170591D03*
X0190276Y0160591D03*
X0190276Y0150591D03*
X0190276Y0140591D03*
X0190276Y0130591D03*
X0190276Y0120591D03*
X0190276Y0110591D03*
X0190276Y0100591D03*
X0170591Y0100119D03*
X0170591Y0110119D03*
X0143387Y0110119D03*
X0143387Y0100119D03*
X0143387Y0090119D03*
X0143387Y0080119D03*
X0143387Y0070119D03*
X0111536Y0048544D03*
X0249331Y0091851D03*
X0296576Y0091851D03*
X0300513Y0111536D03*
X0270221Y0167859D03*
X0291434Y0189072D03*
X0170591Y0150906D03*
D17*
X0189961Y0150906D01*
X0189725Y0161143D02*
X0161143Y0161143D01*
X0150119Y0150119D01*
X0143387Y0150119D01*
X0120198Y0150119D01*
X0115473Y0154843D01*
X0115473Y0182402D01*
X0107599Y0190276D01*
X0143032Y0225709D01*
X0233583Y0225709D01*
X0269017Y0190276D01*
X0288702Y0170591D01*
X0288702Y0119410D01*
X0284765Y0115473D01*
X0284765Y0077520D01*
X0283308Y0076064D02*
X0295080Y0064292D01*
X0332402Y0064292D01*
X0393105Y0124995D01*
X0418583Y0124995D01*
X0418623Y0115473D02*
X0398938Y0115473D01*
X0335946Y0052481D01*
X0206024Y0052481D01*
X0158387Y0100119D01*
X0143387Y0100119D01*
X0143387Y0090119D02*
X0152639Y0090119D01*
X0202087Y0040670D01*
X0339883Y0040670D01*
X0404207Y0104995D01*
X0418583Y0104995D01*
X0418583Y0094995D02*
X0409956Y0094995D01*
X0343820Y0028859D01*
X0198150Y0028859D01*
X0146969Y0080040D01*
X0143465Y0080040D01*
X0143387Y0070119D02*
X0143387Y0063938D01*
X0194213Y0013111D01*
X0391064Y0013111D01*
X0429771Y0051818D01*
X0429771Y0146969D01*
X0421897Y0154843D01*
X0359568Y0154843D01*
X0351694Y0146969D01*
X0351694Y0131221D01*
X0345467Y0124995D01*
X0328583Y0124995D01*
X0328583Y0134995D02*
X0320361Y0134995D01*
X0308387Y0146969D01*
X0308387Y0172119D01*
X0291434Y0189072D01*
X0270221Y0167859D02*
X0270221Y0158804D01*
X0263111Y0151694D01*
X0263111Y0076261D01*
X0273308Y0076064D02*
X0273308Y0072520D01*
X0265080Y0064292D01*
X0249331Y0064292D01*
X0221772Y0091851D01*
X0221772Y0111536D01*
X0213190Y0120119D01*
X0189804Y0120119D01*
X0143387Y0120119D01*
X0135867Y0120119D01*
X0125867Y0110119D01*
X0083387Y0110119D01*
X0083387Y0100119D02*
X0060749Y0100119D01*
X0060355Y0099725D02*
X0042520Y0117560D01*
X0042520Y0139371D01*
X0032796Y0139095D02*
X0032796Y0111536D01*
X0054450Y0089883D01*
X0083150Y0089883D01*
X0083387Y0070119D02*
X0101772Y0070119D01*
X0111536Y0060355D01*
X0111536Y0048544D01*
X0042520Y0058269D02*
X0035158Y0050906D01*
X0035394Y0050670D02*
X0035394Y0034725D01*
X0035394Y0024725D02*
X0029056Y0024725D01*
X0020985Y0032796D01*
X0020985Y0052481D01*
X0032520Y0064017D01*
X0032520Y0069371D01*
X0022520Y0069371D02*
X0022324Y0069568D01*
X0009174Y0082717D01*
X0009174Y0182402D01*
X0017048Y0190276D01*
X0107599Y0190276D01*
X0143387Y0180119D02*
X0158859Y0180119D01*
X0166654Y0187914D01*
X0166654Y0194213D01*
X0166654Y0206024D01*
X0176654Y0206024D02*
X0176654Y0194213D01*
X0176654Y0172402D01*
X0178465Y0170591D02*
X0190276Y0170591D01*
X0244213Y0170591D01*
X0263111Y0151694D01*
X0237520Y0119410D02*
X0226339Y0130591D01*
X0190276Y0130591D01*
X0143859Y0130591D01*
X0143387Y0130119D02*
X0131647Y0130119D01*
X0126080Y0124552D01*
X0111221Y0130119D02*
X0120985Y0139883D01*
X0143150Y0139883D01*
X0143387Y0140119D01*
X0189804Y0140119D01*
X0237520Y0119410D02*
X0237520Y0103662D01*
X0249331Y0091851D01*
X0296576Y0091851D02*
X0299719Y0094995D01*
X0328583Y0094995D01*
X0328583Y0104995D02*
X0307054Y0104995D01*
X0300513Y0111536D01*
X0189804Y0110119D02*
X0170591Y0110119D01*
X0170591Y0100119D02*
X0189804Y0100119D01*
X0111221Y0130119D02*
X0083387Y0130119D01*
X0083387Y0140119D02*
X0099221Y0140119D01*
X0104867Y0145765D01*
X0082599Y0150906D02*
X0024922Y0150906D01*
X0022520Y0148505D01*
X0022520Y0139371D01*
X0042520Y0069371D02*
X0042520Y0058269D01*
X0143859Y0170591D02*
X0178465Y0170591D01*
D18*
X0189725Y0161143D02*
X0190276Y0160591D01*
X0190276Y0110591D02*
X0189804Y0110119D01*
X0190276Y0100591D02*
X0189804Y0100119D01*
X0143465Y0080040D02*
X0143387Y0080119D01*
X0083387Y0090119D02*
X0083150Y0089883D01*
X0083387Y0150119D02*
X0082599Y0150906D01*
X0263111Y0076261D02*
X0263308Y0076064D01*
X0418583Y0114995D02*
X0418623Y0115034D01*
X0418623Y0115473D01*
D19*
X0190276Y0120591D02*
X0189804Y0120119D01*
X0143859Y0130591D02*
X0143387Y0130119D01*
X0189961Y0150906D02*
X0190276Y0150591D01*
X0143859Y0170591D02*
X0143387Y0170119D01*
X0032796Y0139095D02*
X0032520Y0139371D01*
X0060749Y0100119D02*
X0060355Y0099725D01*
X0035158Y0050906D02*
X0035394Y0050670D01*
D20*
X0283308Y0076064D02*
X0284765Y0077520D01*
D21*
X0178465Y0170591D02*
X0176654Y0172402D01*
M02*
